<?xml version="1.0" encoding="utf-8"?>
<!-- Generator: Adobe Illustrator 23.0.1, SVG Export Plug-In . SVG Version: 6.00 Build 0)  -->
<svg version="1.1" id="Layer_2" xmlns="http://www.w3.org/2000/svg" xmlns:xlink="http://www.w3.org/1999/xlink" x="0px" y="0px"
	 viewBox="0 0 100 75" style="enable-background:new 0 0 100 75;" xml:space="preserve">
<style type="text/css">
	.st0{fill-rule:evenodd;clip-rule:evenodd;fill:#1C3664;}
	.st1{fill:#BC2025;}
	.st2{fill-rule:evenodd;clip-rule:evenodd;fill:#FFFFFF;}
	.st3{fill-rule:evenodd;clip-rule:evenodd;fill:#CCD8E6;}
	.st4{fill-rule:evenodd;clip-rule:evenodd;fill:#FEFEFE;}
	.st5{fill-rule:evenodd;clip-rule:evenodd;fill:#ABBDD5;}
	.st6{fill:#FFFFFF;}
	.st7{fill-rule:evenodd;clip-rule:evenodd;fill:#003465;}
	.st8{fill:#003465;}
	.st9{fill:#1C3664;}
</style>
<path class="st9" d="M46.3,57.6c0-7.5-6.1-13.6-13.6-13.6S19,50.1,19,57.6s6.1,13.6,13.6,13.6S46.3,65.1,46.3,57.6z M20,57.6
	c0-7,5.7-12.6,12.6-12.6c7,0,12.6,5.7,12.6,12.6s-5.7,12.6-12.6,12.6C25.7,70.2,20,64.5,20,57.6z M32.3,61.7v-8.2h0l-1.6,0.9l-0.2-1
	l2.1-1.1h1.1v9.4H32.3z M63.6,23.6l4.9-12.1l-0.5-0.2c-3.4-1.1-5.8,0.2-7.6,1.2c-0.8,0.5-1.6,0.9-2,0.7c-0.5-0.2-0.9-0.5-1.3-0.8
	c-1.1-0.8-2.5-1.7-4.8-0.9c-1.1,0.4-1.8,1.1-2.3,1.6c-1,1-1.6,1.6-4.5-0.2c-5.2-3.2-7.6,0.1-7.6,0.1l-0.2,0.3l5.7,10.2H63.6z
	 M44.8,13.8c3.3,2.1,4.4,1.4,5.7,0.1c0.5-0.5,1.1-1.1,2-1.4c1.9-0.7,2.9,0,3.9,0.8c0.5,0.3,1,0.7,1.6,0.9c0.9,0.3,1.8-0.2,2.8-0.8
	c1.6-0.9,3.5-2,6.3-1.3l-4.2,10.5h-19l-5.1-9.1C39.4,12.9,41.3,11.6,44.8,13.8z M63,26.2H43.6v-1H63V26.2z M43.6,27.2H63v1H43.6
	V27.2z M80.6,39.6c-5.6-9.4-15.1-10.9-15.5-11l-0.1,1c0.1,0,9.4,1.5,14.8,10.5c5.6,9.3,4.2,19.8,3.1,20.6c-0.2,0.1-0.3,0.3-0.5,0.4
	c-1.5,1.2-3.9,3.2-9.3,3.2c0.1-0.4,0.2-0.7,0.2-1.2c0-1.4-0.8-2.6-1.9-3.2c1.1-0.6,1.9-1.8,1.9-3.2c0-2-1.7-3.7-3.7-3.7H49.5
	c-2-7.5-8.8-13-16.8-13c-1.7,0-3.3,0.3-4.8,0.7c3.3-9.1,14.5-11.2,14.6-11.2l-0.2-1c-0.1,0-12.4,2.3-15.6,12.6
	c-6.7,2.5-11.4,8.8-11.4,16.3C15.2,67.2,23,75,32.6,75c2.9,0,5.6-0.7,8.1-2c0.5,0.2,0.9,0.3,1.4,0.3h27.4c2,0,3.7-1.7,3.7-3.7
	c0-1.4-0.8-2.6-1.9-3.2c0.5-0.3,0.9-0.6,1.2-1.1c0.2,0,0.3,0,0.5,0c5.7,0,8.4-2.2,9.9-3.4c0.2-0.2,0.3-0.3,0.5-0.4
	C85.1,60.3,86.3,49.2,80.6,39.6z M69.5,54.1c1.5,0,2.7,1.2,2.7,2.7s-1.2,2.7-2.7,2.7H49.9c0,0,0,0,0-0.1c0.1-0.6,0.1-1.3,0.1-1.9
	c0-0.6,0-1.2-0.1-1.7c-0.1-0.6-0.1-1.2-0.3-1.7H69.5z M16.2,57.6c0-9.1,7.4-16.4,16.4-16.4c7.8,0,14.4,5.5,16,12.9
	c0,0.1,0.1,0.3,0.1,0.4c0.1,0.4,0.2,0.9,0.2,1.3c0,0.1,0,0.2,0,0.3c0,0.5,0.1,1,0.1,1.5c0,0.5,0,1-0.1,1.5c0,0.2,0,0.3-0.1,0.5
	c0,0.3-0.1,0.5-0.1,0.8c-0.1,0.3-0.1,0.6-0.2,0.9c-0.1,0.3-0.1,0.5-0.2,0.8c-0.1,0.3-0.2,0.5-0.2,0.8c-0.1,0.3-0.2,0.5-0.3,0.8
	c-0.1,0.2-0.2,0.5-0.3,0.7c-0.1,0.3-0.3,0.5-0.4,0.8c-0.1,0.2-0.2,0.4-0.3,0.6c-0.2,0.3-0.4,0.7-0.6,1c0,0,0,0.1-0.1,0.1
	c-0.6,0.8-1.2,1.6-1.9,2.4c0,0,0,0-0.1,0.1c-0.7,0.7-1.5,1.4-2.4,2c0,0-0.1,0-0.1,0.1C39.2,73,36,74,32.6,74
	C23.6,74,16.2,66.6,16.2,57.6z M72.2,69.6c0,1.5-1.2,2.7-2.7,2.7H42.1c-0.1,0-0.1,0-0.2,0c0.1-0.1,0.2-0.1,0.3-0.2
	c0.2-0.2,0.5-0.3,0.7-0.5c0.3-0.2,0.5-0.4,0.8-0.6c0.2-0.2,0.4-0.4,0.6-0.6c0.4-0.4,0.8-0.8,1.2-1.2c0.2-0.2,0.4-0.5,0.6-0.7
	c0.2-0.2,0.4-0.5,0.5-0.7c0.2-0.3,0.4-0.5,0.5-0.8c0-0.1,0.1-0.1,0.2-0.2h22.2C71,66.9,72.2,68.1,72.2,69.6z M69.5,65.9H47.9
	c0.3-0.5,0.5-1,0.7-1.5c0-0.1,0.1-0.2,0.1-0.4c0.1-0.4,0.3-0.7,0.4-1.1c0.1-0.2,0.1-0.3,0.2-0.5c0.1-0.3,0.2-0.7,0.3-1
	c0-0.2,0.1-0.4,0.1-0.6c0-0.1,0-0.2,0.1-0.3h19.7c1.5,0,2.7,1.2,2.7,2.7S71,65.9,69.5,65.9z"/>
</svg>
