<?xml version="1.0" encoding="utf-8"?>
<!-- Generator: Adobe Illustrator 23.0.1, SVG Export Plug-In . SVG Version: 6.00 Build 0)  -->
<svg version="1.1" id="Layer_2" xmlns="http://www.w3.org/2000/svg" xmlns:xlink="http://www.w3.org/1999/xlink" x="0px" y="0px"
	 viewBox="0 0 100 75" style="enable-background:new 0 0 100 75;" xml:space="preserve">
<style type="text/css">
	.st0{fill-rule:evenodd;clip-rule:evenodd;fill:#1C3664;}
	.st1{fill:#BC2025;}
	.st2{fill-rule:evenodd;clip-rule:evenodd;fill:#FFFFFF;}
	.st3{fill-rule:evenodd;clip-rule:evenodd;fill:#CCD8E6;}
	.st4{fill-rule:evenodd;clip-rule:evenodd;fill:#FEFEFE;}
	.st5{fill-rule:evenodd;clip-rule:evenodd;fill:#ABBDD5;}
	.st6{fill:#FFFFFF;}
	.st7{fill-rule:evenodd;clip-rule:evenodd;fill:#003465;}
	.st8{fill:#003465;}
	.st9{fill:#1C3664;}
</style>
<path class="st9" d="M84.3,39.2l1.4-2.2L84,34.9l1.1-2.4l-1.9-1.8l0.8-2.5l-2.1-1.6l0.5-2.6l-2.3-1.3l0.2-2.7l-2.5-1l-0.2-2.7
	L75,15.7l-0.5-2.6l-2.6-0.3L71,10.2l-2.7,0l-1.1-2.4l-2.6,0.3l-1.4-2.2l-2.6,0.7l-1.7-2l-2.5,1l-1.9-1.8l-2.3,1.3L50,3.4l-2.2,1.6
	l-2.3-1.3l-1.9,1.8l-2.5-1l-1.7,2l-2.6-0.7l-1.4,2.2l-2.6-0.3l-1.1,2.4l-2.7,0l-0.8,2.5l-2.6,0.3L25,15.7l-2.6,0.7L22.2,19l-2.5,1
	l0.2,2.7l-2.3,1.3l0.5,2.6l-2.1,1.6l0.8,2.5l-1.9,1.8l1.1,2.4l-1.7,2.1l1.4,2.2l-1.4,2.2l1.7,2.1l-1.1,2.4l1.9,1.8l-0.8,2.5l2.1,1.6
	l-0.5,2.6l2.3,1.3l-0.2,2.7l2.5,1l0.2,2.7l2.6,0.7l0.5,2.6l2.6,0.3l0.8,2.5l2.7,0l1.1,2.4l2.6-0.3l1.4,2.2l2.6-0.7l1.7,2l2.5-1
	l1.9,1.8l2.3-1.3L50,75l2.2-1.6l2.3,1.3l1.9-1.8l2.5,1l1.7-2l2.6,0.7l1.4-2.2l2.6,0.3l1.1-2.4l2.7,0l0.8-2.5l2.6-0.3l0.5-2.6
	l2.6-0.7l0.2-2.7l2.5-1l-0.2-2.7l2.3-1.3l-0.5-2.6l2.1-1.6l-0.8-2.5l1.9-1.8L84,43.5l1.7-2.1L84.3,39.2z M84,45.7l-1.9,1.8l0.8,2.4
	l-2.1,1.5l0.5,2.5L79,55.2l0.2,2.6l-2.4,1l-0.2,2.6l-2.5,0.6l-0.5,2.5l-2.5,0.3l-0.8,2.4l-2.6,0l-1.1,2.3l-2.5-0.3l-1.4,2.2
	l-2.5-0.6l-1.6,2l-2.4-0.9l-1.9,1.8l-2.3-1.2L50,73.8l-2.1-1.5l-2.3,1.2l-1.9-1.8l-2.4,0.9l-1.6-2l-2.5,0.6l-1.4-2.2l-2.5,0.3
	l-1.1-2.3l-2.6,0l-0.8-2.4l-2.5-0.3l-0.5-2.5l-2.5-0.6l-0.2-2.6l-2.4-1l0.2-2.6l-2.2-1.2l0.5-2.5l-2.1-1.5l0.8-2.4L16,45.7l1.1-2.3
	l-1.6-2l1.4-2.2L15.5,37l1.6-2L16,32.7l1.9-1.8l-0.8-2.4l2.1-1.5l-0.5-2.5l2.2-1.2l-0.2-2.6l2.4-1l0.2-2.6l2.5-0.6l0.5-2.5l2.5-0.3
	l0.8-2.4l2.6,0l1.1-2.3l2.5,0.3l1.4-2.2l2.5,0.6l1.6-2l2.4,0.9l1.9-1.8l2.3,1.2L50,4.6l2.1,1.5l2.3-1.2l1.9,1.8l2.4-0.9l1.6,2
	l2.5-0.6l1.4,2.2l2.5-0.3l1.1,2.3l2.6,0l0.8,2.4l2.5,0.3l0.5,2.5l2.5,0.6l0.2,2.6l2.4,1L79,23.2l2.2,1.2L80.8,27l2.1,1.5L82.1,31
	l1.9,1.8L82.9,35l1.6,2l-1.4,2.2l1.4,2.2l-1.6,2L84,45.7z M50,11.4c-15.3,0-27.8,12.5-27.8,27.8S34.7,67,50,67s27.8-12.5,27.8-27.8
	S65.3,11.4,50,11.4z M50,66c-14.8,0-26.8-12-26.8-26.8c0-14.8,12-26.8,26.8-26.8c14.8,0,26.8,12,26.8,26.8C76.8,54,64.8,66,50,66z
	 M55.2,38.7c0,0.3,0,0.6,0,0.7l-0.1,0.5l0.5,0c0.7,0,1.2,0.3,1.5,0.7c0.6,0.7,0.5,1.9,0.5,1.9l0,0.1l0,0.1c0,0.2,0.2,1.9-2.5,2.3
	c-0.4,0.1-0.8,0.1-1.2,0.3l-3-6.4c-0.1-0.7-0.5-6,0.3-10.8c0.9-5.5-0.7-7.8-0.8-7.9L50,20.4l0,0l-0.4-0.3c-0.1,0.1-1.7,2.4-0.8,7.9
	c0.8,4.8,0.4,10.1,0.3,10.8l-3,6.4c-0.4-0.1-0.8-0.2-1.2-0.3c-2.6-0.4-2.5-2.1-2.5-2.3l0-0.1l0-0.1c0,0-0.1-1.1,0.5-1.9
	c0.3-0.4,0.9-0.6,1.5-0.7l0.5,0l-0.1-0.5c0-0.1,0-0.4,0-0.7c-0.1-2.9-0.6-11.5-5.8-15.1l-0.8-0.5v28.3h7.1c0.3,2.5,1.4,5.2,4.1,6.9
	v0.6l0.5-0.3l0.5,0.3v-0.6c2.7-1.7,3.8-4.4,4.1-6.9h7.1V23.1l-0.8,0.5C55.8,27.2,55.3,35.8,55.2,38.7z M43.8,38.7c0,0.1,0,0.2,0,0.3
	c-0.7,0.1-1.3,0.5-1.7,1c-0.7,0.8-0.8,1.9-0.8,2.3h-2.1V25.1C43.3,28.6,43.7,36.2,43.8,38.7z M45.5,46.2c0,0.2-0.4,1.9-0.2,4.2h-6
	v-7.1h2.1c0.2,0.9,0.9,2.2,3.2,2.6c0.3,0,0.6,0.1,0.9,0.2L45.5,46.2z M50,21.5c0.4,1,0.8,3.1,0.3,6.3c-0.1,0.7-0.2,1.3-0.3,2
	c-0.1-0.7-0.1-1.3-0.3-2C49.2,24.6,49.6,22.6,50,21.5z M50,39.1L50,39.1l3,6.4c-1.5,0.6-2.5,1.4-3,1.8c-0.5-0.4-1.5-1.3-3-1.8
	L50,39.1z M49.5,57.1c-1.9-1.5-2.7-3.6-3-5.7h3V57.1z M49.5,50.4h-3.2c-0.2-2,0.1-3.6,0.2-3.9l0-0.1c1.5,0.6,2.6,1.5,2.9,1.8V50.4z
	 M50.5,57.1v-5.7h3C53.3,53.4,52.4,55.6,50.5,57.1z M53.7,50.4h-3.2v-2.2c0.4-0.3,1.4-1.2,2.9-1.8l0,0.1
	C53.6,46.8,53.8,48.4,53.7,50.4z M56.2,39c0-0.1,0-0.2,0-0.3c0.1-2.6,0.5-10.1,4.5-13.7v17.3h-2.1c0-0.5-0.1-1.5-0.8-2.3
	C57.4,39.5,56.9,39.2,56.2,39z M54.7,50.4c0.2-2.2-0.2-4-0.2-4.2l-0.1-0.2c0.3-0.1,0.6-0.1,0.9-0.2c2.4-0.3,3.1-1.7,3.2-2.6h2.1v7.1
	H54.7z"/>
</svg>
