<?xml version="1.0" encoding="utf-8"?>
<!-- Generator: Adobe Illustrator 23.0.1, SVG Export Plug-In . SVG Version: 6.00 Build 0)  -->
<svg version="1.1" id="Layer_2" xmlns="http://www.w3.org/2000/svg" xmlns:xlink="http://www.w3.org/1999/xlink" x="0px" y="0px"
	 viewBox="0 0 42 30" style="enable-background:new 0 0 42 30;" xml:space="preserve">
<style type="text/css">
	.st0{fill-rule:evenodd;clip-rule:evenodd;fill:#1C3664;}
	.st1{fill:#BC2025;}
	.st2{fill-rule:evenodd;clip-rule:evenodd;fill:#FFFFFF;}
	.st3{fill-rule:evenodd;clip-rule:evenodd;fill:#CCD8E6;}
	.st4{fill-rule:evenodd;clip-rule:evenodd;fill:#FEFEFE;}
	.st5{fill-rule:evenodd;clip-rule:evenodd;fill:#ABBDD5;}
	.st6{fill:#FFFFFF;}
	.st7{fill-rule:evenodd;clip-rule:evenodd;fill:#003465;}
	.st8{fill:#003465;}
	.st9{fill:#1C3664;}
</style>
<path id="XMLID_1_" class="st6" d="M36.3,1.4c0.6,0,1.2,0.2,1.6,0.7c0.5,0.5,0.7,1,0.7,1.6c0,0.9-0.3,1.7-0.8,2.6
	c-0.6,0.9-1.4,1.7-2.3,2.3c-5.2,3.6-8.5,5.9-9.7,6.8c-0.1,0.1-0.4,0.3-0.9,0.6c-0.4,0.3-0.8,0.6-1.1,0.8c-0.3,0.2-0.6,0.4-1,0.6
	c-0.4,0.2-0.7,0.4-1,0.5C21.5,17.9,21.2,18,21,18c-0.2,0-0.5,0-0.7-0.1c-0.3-0.1-0.6-0.3-1-0.5c-0.4-0.2-0.7-0.5-1-0.6
	c-0.3-0.2-0.7-0.5-1.1-0.8c-0.5-0.3-0.8-0.5-0.9-0.6c-1.3-0.9-3.1-2.2-5.5-3.8C8.4,9.9,7,8.9,6.5,8.6C5.7,8,5,7.3,4.3,6.4
	C3.7,5.5,3.4,4.8,3.4,4.1c0-0.9,0.2-1.5,0.6-2.1c0.4-0.5,0.9-0.7,1.7-0.7H36.3 M3.4,12.1c0.2,0.1,0.4,0.3,0.5,0.4
	c5,3.4,8.5,5.8,10.3,7.2c0.8,0.6,1.5,1.1,2,1.4c0.6,0.4,1.2,0.7,2.1,1.1c0.9,0.4,1.8,0.6,2.7,0.6c0.8,0,1.7-0.2,2.7-0.6
	c0.9-0.4,1.6-0.7,2.1-1.1c0.5-0.3,1.2-0.8,2-1.4c2.3-1.7,5.8-4.1,10.3-7.2c0.2-0.1,0.3-0.2,0.5-0.4v14.2c0,0.7-0.2,1.2-0.7,1.6
	c-0.5,0.5-1,0.7-1.6,0.7H5.7c-0.7,0-1.2-0.2-1.6-0.7c-0.5-0.5-0.7-1-0.7-1.6V12.1 M36.3,0.4H5.7c-1.1,0-1.9,0.4-2.5,1.1
	C2.7,2.2,2.4,3.1,2.4,4.1C2.4,5,2.7,6,3.5,7c0.8,1,1.6,1.8,2.4,2.4c0.5,0.3,1.9,1.3,4.3,3c2.4,1.6,4.2,2.9,5.4,3.8
	c0.1,0.1,0.4,0.3,0.9,0.6c0.5,0.3,0.8,0.6,1.1,0.8s0.7,0.4,1.1,0.7c0.4,0.2,0.8,0.4,1.2,0.6s0.7,0.2,1,0.2h0c0.3,0,0.7-0.1,1-0.2
	s0.8-0.3,1.2-0.6c0.4-0.2,0.8-0.5,1.1-0.7s0.7-0.5,1.1-0.8c0.5-0.3,0.7-0.5,0.9-0.6c1.3-0.9,4.5-3.1,9.7-6.8c1-0.7,1.9-1.6,2.5-2.6
	c0.7-1,1-2,1-3.1c0-0.9-0.3-1.7-1-2.3C38,0.7,37.2,0.4,36.3,0.4L36.3,0.4z M39.6,9.8c-0.6,0.7-1.3,1.3-2.1,1.8
	c-4.5,3.1-8,5.5-10.4,7.2c-0.8,0.6-1.4,1-1.9,1.4c-0.5,0.3-1.1,0.7-2,1s-1.6,0.5-2.3,0.5h0c-0.7,0-1.5-0.2-2.3-0.5s-1.5-0.7-2-1
	c-0.5-0.3-1.1-0.8-1.9-1.4c-1.9-1.4-5.3-3.8-10.3-7.2C3.7,11.1,3,10.5,2.4,9.8v16.5c0,0.9,0.3,1.7,1,2.3s1.4,1,2.3,1h30.6
	c0.9,0,1.7-0.3,2.3-1s1-1.4,1-2.3V9.8L39.6,9.8z"/>
</svg>
