<?xml version="1.0" encoding="utf-8"?>
<!-- Generator: Adobe Illustrator 23.0.1, SVG Export Plug-In . SVG Version: 6.00 Build 0)  -->
<svg version="1.1" id="Layer_2" xmlns="http://www.w3.org/2000/svg" xmlns:xlink="http://www.w3.org/1999/xlink" x="0px" y="0px"
	 viewBox="0 0 100 75" style="enable-background:new 0 0 100 75;" xml:space="preserve">
<style type="text/css">
	.st0{fill-rule:evenodd;clip-rule:evenodd;fill:#1C3664;}
	.st1{fill:#BC2025;}
	.st2{fill-rule:evenodd;clip-rule:evenodd;fill:#FFFFFF;}
	.st3{fill-rule:evenodd;clip-rule:evenodd;fill:#CCD8E6;}
	.st4{fill-rule:evenodd;clip-rule:evenodd;fill:#FEFEFE;}
	.st5{fill-rule:evenodd;clip-rule:evenodd;fill:#ABBDD5;}
	.st6{fill:#FFFFFF;}
	.st7{fill-rule:evenodd;clip-rule:evenodd;fill:#003465;}
	.st8{fill:#003465;}
	.st9{fill:#1C3664;}
</style>
<path class="st9" d="M21.1,56.9c-5,0-9.1,4.1-9.1,9.1s4.1,9.1,9.1,9.1s9.1-4.1,9.1-9.1S26.1,56.9,21.1,56.9z M21.1,74
	c-4.4,0-8.1-3.6-8.1-8.1c0-4.4,3.6-8.1,8.1-8.1c4.4,0,8.1,3.6,8.1,8.1C29.1,70.4,25.5,74,21.1,74z M91.1,52.3
	c-7.9-4.8-15.8-5.8-17-6c-1.4-1.2-14.1-11.5-35.4-11.5C21,34.8,9.2,44.6,8.4,45.3l-4.1,2.2c-0.3-0.1-0.8,0-1.2,0.3
	c-0.8,0.6-1.3,1.9-1.3,3.9v14.8h9.1v-0.5c0-5.6,4.6-10.2,10.2-10.2c5.6,0,10.2,4.6,10.2,10.2v0.5H72v-0.5c0-5.6,4.6-10.2,10.2-10.2
	c5.4,0,10,4.4,10.2,9.8l0,1h5.7l0-0.5C98.2,65.9,99,57.1,91.1,52.3z M93.5,65.4L93.5,65.4c-0.3-6-5.2-10.7-11.2-10.7
	c-6,0-11,4.8-11.2,10.7H32.3c-0.3-6-5.2-10.7-11.2-10.7s-11,4.8-11.2,10.7H2.8V51.6c0-2.2,0.5-2.9,0.8-3.1c0.3-0.2,0.5-0.1,0.6-0.1
	l0.2,0.1l4.5-2.4L9,46.1C9.1,46,20.7,35.8,38.7,35.8c22.1,0,34.7,11.2,34.9,11.3l0.1,0.1l0.2,0c0.1,0,8.4,0.8,16.7,5.8
	c6.4,3.9,6.7,10.5,6.7,12.3H93.5z M41.4,37.8c-13.8,0-18.8,8.4-19,8.8L22,47.4h48.4l-1.5-0.9C68.8,46.4,55,37.8,41.4,37.8z
	 M23.8,46.4c1.6-2,6.8-7.6,17.6-7.6c10.6,0,21.4,5.4,25.4,7.6H23.8z M82.2,56.9c-5,0-9.1,4.1-9.1,9.1s4.1,9.1,9.1,9.1
	s9.1-4.1,9.1-9.1S87.2,56.9,82.2,56.9z M82.2,74c-4.4,0-8.1-3.6-8.1-8.1c0-4.4,3.6-8.1,8.1-8.1s8.1,3.6,8.1,8.1
	C90.3,70.4,86.7,74,82.2,74z M82.2,59c-3.8,0-7,3.1-7,7s3.1,7,7,7s7-3.1,7-7S86.1,59,82.2,59z M82.2,71.9c-3.3,0-6-2.7-6-6
	s2.7-6,6-6s6,2.7,6,6S85.5,71.9,82.2,71.9z M21.1,59c-3.8,0-7,3.1-7,7s3.1,7,7,7s7-3.1,7-7S24.9,59,21.1,59z M21.1,71.9
	c-3.3,0-6-2.7-6-6s2.7-6,6-6s6,2.7,6,6S24.4,71.9,21.1,71.9z M45.8,31.6l-12-12l0.7-0.7l11.3,11.3L68,7.9l0.7,0.7L45.8,31.6z"/>
</svg>
