<?xml version="1.0" encoding="utf-8"?>
<!-- Generator: Adobe Illustrator 23.0.1, SVG Export Plug-In . SVG Version: 6.00 Build 0)  -->
<svg version="1.1" id="Layer_2" xmlns="http://www.w3.org/2000/svg" xmlns:xlink="http://www.w3.org/1999/xlink" x="0px" y="0px"
	 viewBox="0 0 40 40" style="enable-background:new 0 0 40 40;" xml:space="preserve">
<style type="text/css">
	.st0{fill-rule:evenodd;clip-rule:evenodd;fill:#1C3664;}
	.st1{fill:#BC2025;}
	.st2{fill-rule:evenodd;clip-rule:evenodd;fill:#FFFFFF;}
	.st3{fill-rule:evenodd;clip-rule:evenodd;fill:#CCD8E6;}
	.st4{fill-rule:evenodd;clip-rule:evenodd;fill:#FEFEFE;}
	.st5{fill-rule:evenodd;clip-rule:evenodd;fill:#ABBDD5;}
	.st6{fill:#FFFFFF;}
	.st7{fill-rule:evenodd;clip-rule:evenodd;fill:#003465;}
	.st8{fill:#003465;}
	.st9{fill:#1C3664;}
</style>
<path class="st6" d="M19.8,14.5c-3.1,0-5.6,2.5-5.6,5.6c0,3.1,2.5,5.6,5.6,5.6c3.2,0,5.7-2.5,5.7-5.6S22.9,14.5,19.8,14.5z
	 M19.8,23.8c-2,0-3.6-1.6-3.6-3.6s1.6-3.6,3.6-3.6s3.6,1.6,3.6,3.6S21.8,23.8,19.8,23.8z M27,14.2c0,0.7-0.6,1.3-1.3,1.3
	c-0.7,0-1.3-0.6-1.3-1.3s0.6-1.3,1.3-1.3C26.5,12.9,27,13.5,27,14.2z M29.1,11c-1.2-1.2-2.7-1.8-4.6-1.8h-9.1
	c-3.9,0-6.5,2.7-6.5,6.5v9.1c0,1.9,0.6,3.6,1.8,4.7c1.2,1.2,2.8,1.7,4.6,1.7h9c1.8,0,3.5-0.6,4.6-1.7c1.2-1.2,1.8-2.8,1.8-4.7v-9.1
	C30.9,13.7,30.3,12.1,29.1,11z M28.9,23.9c0,1.6-0.5,2.9-1.5,3.9c-1,1-2.3,1.4-3.8,1.4h-7.4c-1.5,0-2.9-0.5-3.8-1.4
	c-1-1-1.5-2.3-1.5-3.9v-7.5c0-3.1,2.1-5.3,5.3-5.3h7.5c1.6,0,2.9,0.5,3.8,1.5c1,1,1.4,2.2,1.4,3.8V23.9z"/>
</svg>
