<?xml version="1.0" encoding="utf-8"?>
<!-- Generator: Adobe Illustrator 23.0.1, SVG Export Plug-In . SVG Version: 6.00 Build 0)  -->
<svg version="1.1" id="Layer_2" xmlns="http://www.w3.org/2000/svg" xmlns:xlink="http://www.w3.org/1999/xlink" x="0px" y="0px"
	 viewBox="0 0 100 75" style="enable-background:new 0 0 100 75;" xml:space="preserve">
<style type="text/css">
	.st0{fill-rule:evenodd;clip-rule:evenodd;fill:#1C3664;}
	.st1{fill:#BC2025;}
	.st2{fill-rule:evenodd;clip-rule:evenodd;fill:#FFFFFF;}
	.st3{fill-rule:evenodd;clip-rule:evenodd;fill:#CCD8E6;}
	.st4{fill-rule:evenodd;clip-rule:evenodd;fill:#FEFEFE;}
	.st5{fill-rule:evenodd;clip-rule:evenodd;fill:#ABBDD5;}
	.st6{fill:#FFFFFF;}
	.st7{fill-rule:evenodd;clip-rule:evenodd;fill:#003465;}
	.st8{fill:#003465;}
	.st9{fill:#1C3664;}
</style>
<path class="st9" d="M22.3,58.1c-4.7,0-8.5,3.8-8.5,8.5s3.8,8.5,8.5,8.5s8.5-3.8,8.5-8.5S27,58.1,22.3,58.1z M22.3,74
	c-4.1,0-7.5-3.3-7.5-7.5s3.3-7.5,7.5-7.5s7.5,3.3,7.5,7.5S26.4,74,22.3,74z M79.2,58.1c-4.7,0-8.5,3.8-8.5,8.5s3.8,8.5,8.5,8.5
	s8.5-3.8,8.5-8.5S83.9,58.1,79.2,58.1z M79.2,74c-4.1,0-7.5-3.3-7.5-7.5s3.3-7.5,7.5-7.5s7.5,3.3,7.5,7.5S83.3,74,79.2,74z M79.2,60
	c-3.6,0-6.5,2.9-6.5,6.5s2.9,6.5,6.5,6.5s6.5-2.9,6.5-6.5S82.8,60,79.2,60z M79.2,72.1c-3,0-5.5-2.5-5.5-5.5s2.5-5.5,5.5-5.5
	s5.5,2.5,5.5,5.5S82.2,72.1,79.2,72.1z M22.3,60c-3.6,0-6.5,2.9-6.5,6.5s2.9,6.5,6.5,6.5s6.5-2.9,6.5-6.5S25.9,60,22.3,60z
	 M22.3,72.1c-3,0-5.5-2.5-5.5-5.5s2.5-5.5,5.5-5.5s5.5,2.5,5.5,5.5S25.3,72.1,22.3,72.1z M89,54.7L89,54.7
	c-5.4-2.2-9.5-3.4-12.6-3.7c2.5-3.4,4.8-6.3,6.6-8.2c0.4-0.4,0.8-0.9,1.4-1.5c1.2-1.3,2.7-3,3.6-3.7l0,0h0.3c4.1,0,7.4-3.3,7.4-7.4
	s-3.3-7.4-7.4-7.4H59.5c-2.7-5.2-8-8.4-13.8-8.4c-5.9,0-11.3,3.3-14,8.6l-0.4,0.7h9.9c3.3,0,6,2.7,6,6s-2.7,6-6,6H31.1l0.3,0.7
	c0.2,0.5,0.5,1,0.8,1.5c-12.8,1.8-21.1,8.6-21.8,9.2l-3.8,2c-0.3-0.1-0.7-0.1-1.2,0.2c-0.8,0.5-1.2,1.8-1.2,3.7V67h8.5v-0.5
	c0-5.2,4.3-9.5,9.5-9.5c5.2,0,9.5,4.3,9.5,9.5V67h37.9v-0.5c0-5.2,4.3-9.5,9.5-9.5c5,0,9.2,4.1,9.5,9l0,0.9h5.4l0-0.5
	C94.1,66.2,94.5,58.5,89,54.7z M36.3,42.6L36.3,42.6l0.3,0.2l0,0c0.3,0.2,0.5,0.4,0.8,0.5l0,0c0.1,0.1,0.2,0.1,0.3,0.2l0,0
	c0.3,0.2,0.5,0.3,0.8,0.5l0,0l0.1,0.1c0.1,0,0.2,0.1,0.2,0.1l0,0c0.4,0.2,0.8,0.4,1.2,0.5l0,0l0,0c0.4,0.1,0.8,0.3,1.2,0.4l0,0
	l0.4,0.1l0,0c0.3,0.1,0.6,0.2,0.9,0.2l0,0c0.1,0,0.3,0.1,0.4,0.1l0,0c0.3,0.1,0.6,0.1,0.9,0.1l0,0l0.1,0c0.1,0,0.2,0,0.3,0v0
	c0.4,0,0.9,0.1,1.3,0.1c0.4,0,0.7,0,1.1,0c0,0,0,0,0,0v0c0.4,0,0.7-0.1,1.1-0.1l0,0l0,0c0.3,0,0.7-0.1,1-0.2l0.1,0l0,0
	c1.7-0.4,3.3-1,4.7-1.9c4.8,1.6,8.9,3.6,11,4.8H24.9c1.2-1.5,4.5-5,10.6-6.3C35.8,42.2,36,42.4,36.3,42.6z M59.4,37.6h25.8
	c-1,0.6-2.3,1.5-4,3c-3.3,3.1-5.7,6.5-7.8,9.5l-0.1,0.1l0,0c-2.2-1.8-8.7-7-16.1-9.6C58.1,39.7,58.8,38.7,59.4,37.6z M41.3,36.8
	c3.9,0,7-3.1,7-7s-3.1-7-7-7H33c2.6-4.6,7.4-7.4,12.7-7.4c5.6,0,10.6,3.1,13.1,8.1l0.1,0.3h29.4c3.5,0,6.4,2.9,6.4,6.4
	s-2.9,6.4-6.4,6.4H58.8l-0.1,0.3c-0.7,1.3-1.5,2.4-2.4,3.4l0,0L56,40.4c-0.8,0.8-1.7,1.5-2.7,2.1l-0.2,0.1c-1.4,0.8-2.9,1.4-4.5,1.7
	l0,0l-0.1,0l0,0c-0.3,0.1-0.6,0.1-0.9,0.2l0,0l-0.1,0l0,0c-0.3,0-0.6,0.1-0.8,0.1c-0.3,0-0.7,0-1,0c-0.5,0-1.1,0-1.6-0.1l-0.1,0v0
	c-0.4,0-0.7-0.1-1.1-0.2c-0.1,0-0.1,0-0.2,0l0,0c-0.3-0.1-0.6-0.1-1-0.2l-0.1,0c-1.2-0.4-2.4-0.9-3.5-1.6L38,42.6
	c-0.3-0.2-0.6-0.4-0.9-0.6l0,0l0,0c-0.4-0.3-0.9-0.7-1.3-1c-0.4-0.4-0.8-0.8-1.2-1.2c0,0-0.1-0.1-0.1-0.1c-0.4-0.5-0.8-0.9-1.1-1.5
	c-0.3-0.4-0.6-0.9-0.8-1.3H41.3z M89.7,66c-0.3-5.6-4.9-10-10.5-10c-5.6,0-10.2,4.4-10.5,10h-36c-0.3-5.5-4.9-10-10.5-10
	c-5.6,0-10.2,4.4-10.5,10H5.3V53.2c0-2.1,0.5-2.7,0.7-2.8c0.2-0.2,0.5-0.1,0.5-0.1l0.2,0.1l4.2-2.2l0.1-0.1
	c0.1-0.1,8.4-7.4,21.7-9.1c0,0,0,0,0,0.1c0.2,0.3,0.5,0.7,0.7,1c0,0.1,0.1,0.1,0.1,0.2c0.3,0.3,0.6,0.7,0.9,1c0,0,0,0,0,0
	c-7.9,2-11,7.2-11.1,7.4l-0.4,0.8h45.2l-1.5-0.9c-0.1,0-5.2-3.2-12.1-5.6c0.6-0.4,1.2-0.9,1.8-1.5c7.4,2.5,14,7.8,16.2,9.6l0.9,0.7
	l0.7-1c2.1-3,4.4-6.3,7.7-9.4c1.6-1.5,2.9-2.4,3.8-2.9c-0.7,0.7-1.4,1.5-2,2.2c-0.5,0.6-1,1.1-1.4,1.5c-2,2.1-4.5,5.2-7.3,9
	l-0.6,0.8l0.9,0c3,0.1,7.4,1.3,13,3.6c4.3,3,4.6,8.8,4.6,10.5H89.7z"/>
</svg>
