<?xml version="1.0" encoding="utf-8"?>
<!-- Generator: Adobe Illustrator 23.0.1, SVG Export Plug-In . SVG Version: 6.00 Build 0)  -->
<svg version="1.1" id="Layer_2" xmlns="http://www.w3.org/2000/svg" xmlns:xlink="http://www.w3.org/1999/xlink" x="0px" y="0px"
	 viewBox="0 0 42 42" style="enable-background:new 0 0 42 42;" xml:space="preserve">
<style type="text/css">
	.st0{fill-rule:evenodd;clip-rule:evenodd;fill:#1C3664;}
	.st1{fill:#BC2025;}
	.st2{fill-rule:evenodd;clip-rule:evenodd;fill:#FFFFFF;}
	.st3{fill-rule:evenodd;clip-rule:evenodd;fill:#CCD8E6;}
	.st4{fill-rule:evenodd;clip-rule:evenodd;fill:#FEFEFE;}
	.st5{fill-rule:evenodd;clip-rule:evenodd;fill:#ABBDD5;}
	.st6{fill:#FFFFFF;}
	.st7{fill-rule:evenodd;clip-rule:evenodd;fill:#003465;}
	.st8{fill:#003465;}
	.st9{fill:#1C3664;}
</style>
<g id="XMLID_12_">
	<path id="XMLID_13_" class="st6" d="M8.5,1.2L8.5,1.2c1,0,1.9,0.6,2.6,1.1l0.4,0.3c0.9,0.8,2.3,7.6,2.3,8.7c-0.1,0.8-1.3,2-3.8,4.2
		l-0.5,0.4l0.2,0.6c0.9,3,3.5,6.8,5.5,9.1c1.9,2.1,5.8,5.7,8.8,7.1l0.6,0.3l0.5-0.4c2.2-2,3.4-3,4.3-3.2l0.4,0
		c1.3,0.2,7.7,2.3,8.4,3.3l0.2,0.5c0.6,1.3,1.2,2.7,0.3,3.9c-0.7,0.9-2.6,3-4.7,3.8l-0.1,0l0,0l0,0c-0.1,0-0.5,0.1-0.9,0.1
		c-1.2,0-12.2-0.3-21.4-10.7C2.3,19.7,2.4,7.3,3,5.8c1-2.1,3.4-3.7,4.3-4.3c0.2-0.1,0.5-0.2,0.7-0.3C8.2,1.2,8.4,1.2,8.5,1.2
		 M8.5,0.2c-0.2,0-0.4,0-0.6,0.1C7.5,0.3,7.1,0.5,6.8,0.7c-1,0.6-3.6,2.4-4.7,4.7c-0.7,1.4-1,14.4,8.7,25.4c8.4,9.5,18.5,11,22.1,11
		c0.5,0,0.9,0,1.1-0.1l0,0l0.2,0c2.4-0.9,4.4-3.2,5.2-4.1c1.4-1.7,0.4-3.8-0.1-4.9l-0.2-0.5c-0.6-1.5-8.6-3.9-9.2-3.9l-0.5,0
		c-1.1,0.2-2.3,1.2-4.8,3.5c-2.8-1.3-6.7-4.8-8.5-6.8c-2-2.2-4.4-6-5.3-8.7c2.9-2.5,4-3.6,4.1-4.8c0-0.7-1.3-8.8-2.8-9.6l-0.4-0.3
		C10.9,0.9,9.8,0.2,8.5,0.2L8.5,0.2z"/>
</g>
</svg>
