<?xml version="1.0" encoding="utf-8"?>
<!-- Generator: Adobe Illustrator 23.0.1, SVG Export Plug-In . SVG Version: 6.00 Build 0)  -->
<svg version="1.1" id="Layer_2" xmlns="http://www.w3.org/2000/svg" xmlns:xlink="http://www.w3.org/1999/xlink" x="0px" y="0px"
	 viewBox="0 0 100 75" style="enable-background:new 0 0 100 75;" xml:space="preserve">
<style type="text/css">
	.st0{fill-rule:evenodd;clip-rule:evenodd;fill:#1C3664;}
	.st1{fill:#BC2025;}
	.st2{fill-rule:evenodd;clip-rule:evenodd;fill:#FFFFFF;}
	.st3{fill-rule:evenodd;clip-rule:evenodd;fill:#CCD8E6;}
	.st4{fill-rule:evenodd;clip-rule:evenodd;fill:#FEFEFE;}
	.st5{fill-rule:evenodd;clip-rule:evenodd;fill:#ABBDD5;}
	.st6{fill:#FFFFFF;}
	.st7{fill-rule:evenodd;clip-rule:evenodd;fill:#003465;}
	.st8{fill:#003465;}
	.st9{fill:#1C3664;}
</style>
<path class="st9" d="M83.5,45c-3-1.8-6.1-3-8.4-3.6c1-7.3,1-15.5,1-24.2l0-2.7h-0.5c-13.3,0-25-10.2-25.1-10.3l-0.3-0.3l-0.3,0.3
	C49.7,4.3,38,14.5,24.7,14.5h-0.5l0,2.6c0,6.9,0,13.4,0.5,19.4c-2.7,1.5-4.3,2.8-4.6,3.1L17,41.3c-0.2,0-0.6,0-1,0.2
	c-0.7,0.5-1,1.5-1,3.1v11.5h7.2v-0.5c0-3.1,1.9-5.8,4.5-7c0.1,0.2,0.1,0.4,0.2,0.6c-2.4,1.1-4,3.6-4,6.4c0,3.9,3.2,7.1,7.1,7.1
	c1.1,0,2.2-0.3,3.1-0.7c1.8,2.5,3.9,4.7,6.5,6.7c7.3,4.5,10.4,6.2,10.5,6.2l0.2,0.1l0.2-0.1c0.1-0.1,2.6-1.3,10.5-6.2
	c3.9-3.1,6.8-6.7,9.1-10.8c0.9,2.8,3.6,4.8,6.7,4.8c3.9,0,7.1-3.2,7.1-7.1s-3.2-7.1-7.1-7.1c-1.2,0-2.3,0.3-3.3,0.8
	c0.1-0.3,0.2-0.6,0.2-0.9c0.9-0.4,1.9-0.6,3-0.6c4.1,0,7.5,3.3,7.7,7.4l0,0.9H89l0-0.5C89,55.6,89.6,48.8,83.5,45z M25.2,15.5
	c12.2-0.2,22.9-8.6,24.9-10.3c2,1.7,12.7,10.1,24.9,10.3l0,1.7c0,8.6,0,16.7-1,23.9c-1.8-0.5-3.2-0.6-3.6-0.7
	c-0.1-0.1-0.3-0.3-0.6-0.5c0.7-5.5,0.7-11.6,0.7-18l0-2.2h-0.5c-10.4,0-19.5-8-19.6-8l-0.3-0.3l-0.3,0.3c-0.1,0.1-9.2,8-19.6,8h-0.5
	l0,2.2c0,4.3,0,8.3,0.2,12.1c-1.5,0.6-2.9,1.2-4.3,1.9c-0.5-5.9-0.4-12.2-0.4-18.9L25.2,15.5z M30.7,22.1l0-1.2
	c9.5-0.2,17.7-6.6,19.4-8c1.7,1.5,9.9,7.8,19.4,8l0,1.2c0,6.2,0,12-0.6,17.3c-3.5-2.4-12.4-7.6-25.7-7.6c-4.8,0-9,0.9-12.4,2.1
	C30.7,30.1,30.7,26.2,30.7,22.1z M27.6,48.3c0.3-0.1,0.7-0.2,1-0.2c0.1,0,0.1,0,0.2,0c0.7-0.1,1.4-0.1,2.1,0c0.1,0,0.1,0,0.2,0
	c0.3,0.1,0.7,0.1,1,0.2c0.1,0.3,0.2,0.5,0.3,0.8c0,0-0.1,0-0.1,0c-0.1-0.1-0.3-0.1-0.4-0.1c-0.1,0-0.1,0-0.2-0.1
	c-0.1,0-0.3-0.1-0.4-0.1c-0.1,0-0.2,0-0.3,0c-0.1,0-0.2,0-0.3,0c-0.2,0-0.4,0-0.7,0c-0.3,0-0.6,0-1,0.1c-0.1,0-0.1,0-0.2,0
	c-0.3,0.1-0.6,0.1-0.9,0.2C27.7,48.7,27.6,48.5,27.6,48.3z M63.2,56.1c-1.4,2-3.1,3.8-5.1,5.5c-5,3.1-7.2,4.3-7.9,4.7
	c-0.7-0.4-3.2-1.8-7.9-4.7c-2.1-1.8-3.9-3.6-5.4-5.8c0-0.1,0-0.2,0-0.2c0-2.5-1.3-4.7-3.2-5.9c-0.1-0.3-0.2-0.6-0.4-1
	c2.5,1.3,4.3,3.9,4.3,6.9v0.5H63.2z M23.8,55.6c0-2.5,1.5-4.6,3.7-5.6l0.1,0c0,0,0.1,0,0.1,0c0.2-0.1,0.4-0.1,0.6-0.2
	c0,0,0.1,0,0.1,0c0.2-0.1,0.4-0.1,0.6-0.1c0,0,0,0,0.1,0c0.2,0,0.4-0.1,0.7-0.1c0,0,0,0,0,0c1.2,0,2.3,0.3,3.3,0.9
	c1.8,1.1,2.9,3,2.9,5.2c0,0.1,0,0.2,0,0.3l0,0.1c0,0.8-0.2,1.5-0.5,2.2c0,0,0,0,0,0.1c-0.1,0.2-0.2,0.4-0.3,0.6c0,0,0,0.1-0.1,0.1
	c-0.1,0.2-0.2,0.4-0.4,0.5c0,0,0,0,0,0c-0.1,0.2-0.3,0.4-0.5,0.5c0,0,0,0-0.1,0.1c-0.1,0.1-0.3,0.3-0.5,0.4c0,0-0.1,0.1-0.1,0.1
	c-0.2,0.1-0.3,0.2-0.5,0.4c0,0-0.1,0-0.1,0.1l-0.1,0c-0.9,0.5-1.8,0.7-2.9,0.7C26.5,61.7,23.8,59,23.8,55.6z M82.7,55.6
	c0,3.3-2.7,6.1-6.1,6.1c-3.1,0-5.6-2.3-6-5.3c0-0.2,0-0.5,0-0.7c0-0.2,0-0.4,0-0.7c0-0.1,0-0.1,0-0.2c0-0.1,0-0.3,0.1-0.4
	c0-0.1,0-0.2,0.1-0.3c0-0.1,0.1-0.2,0.1-0.3c0-0.1,0.1-0.2,0.1-0.3c0-0.1,0.1-0.2,0.1-0.3c0-0.1,0.1-0.2,0.1-0.3
	c0-0.1,0.1-0.2,0.1-0.3c0.1-0.1,0.1-0.2,0.2-0.3c0.1-0.1,0.1-0.2,0.2-0.2c0.1-0.1,0.1-0.2,0.2-0.3c0.1-0.1,0.2-0.2,0.2-0.3
	c0.1-0.1,0.1-0.1,0.2-0.2c0.1-0.1,0.3-0.3,0.5-0.4c1-0.9,2.4-1.4,3.8-1.4C80,49.6,82.7,52.3,82.7,55.6z M71.6,50.7
	c-0.1,0.1-0.2,0.2-0.3,0.3c-0.1,0.1-0.1,0.2-0.2,0.3c-0.1,0.1-0.2,0.2-0.2,0.3c-0.1,0.1-0.1,0.2-0.2,0.3c-0.1,0.1-0.1,0.2-0.2,0.4
	c-0.1,0.1-0.1,0.2-0.1,0.3c-0.1,0.1-0.1,0.2-0.2,0.4c0,0.1-0.1,0.2-0.1,0.3c0,0.1-0.1,0.2-0.1,0.4c0,0.1-0.1,0.2-0.1,0.4
	c0,0.1-0.1,0.2-0.1,0.3c0,0.2-0.1,0.3-0.1,0.5c0,0.1,0,0.2,0,0.3c0,0.2,0,0.5,0,0.7c0,0.2,0,0.5,0,0.7c-2.3,4.4-5.3,8.2-9.4,11.5
	c-6.5,4-9.4,5.6-10.2,6c-0.8-0.5-4-2.2-10.1-6c-2.4-2-4.4-4.1-6.2-6.4c0.3-0.2,0.6-0.4,0.8-0.7c0.1-0.1,0.1-0.1,0.2-0.2
	c0.1-0.1,0.1-0.1,0.2-0.2c0.1-0.1,0.2-0.2,0.3-0.3c0.1-0.1,0.1-0.2,0.2-0.3c0.1-0.1,0.1-0.2,0.2-0.2c0.1-0.1,0.2-0.2,0.2-0.4
	c0-0.1,0.1-0.1,0.1-0.2c0.1-0.2,0.2-0.3,0.2-0.5c0,0,0-0.1,0.1-0.1c0.1-0.2,0.1-0.4,0.2-0.5c0,0,0,0,0-0.1c0.1-0.2,0.1-0.4,0.2-0.6
	c0,0,0,0,0,0c1.4,1.9,3,3.5,5,5.1c5.8,3.5,8.2,4.8,8.2,4.9l0.2,0.1l0.2-0.1c0.1,0,2-1.1,8.3-4.9c2.3-1.9,4.2-3.9,5.8-6.3H69v-0.5
	c0-0.3,0-0.6,0.1-0.9c0-0.1,0-0.1,0-0.2c0-0.3,0.1-0.5,0.1-0.8c0,0,0-0.1,0-0.1c0.5-1.8,1.6-3.4,3.2-4.5c-0.1,0.3-0.2,0.7-0.3,1
	c-0.1,0.1-0.1,0.1-0.2,0.2C71.8,50.5,71.7,50.6,71.6,50.7z M85.4,55.1c-0.3-4.6-4.1-8.2-8.7-8.2c-0.9,0-1.9,0.2-2.7,0.4l0-0.1
	l-0.5,0.3c-2.7,1.1-4.7,3.4-5.3,6.3c0,0.1,0,0.1,0,0.2c-0.1,0.4-0.1,0.7-0.1,1.1h-4.1H38.5c-0.2-3.5-2.5-6.5-5.7-7.7l0,0l-0.2-0.1
	c0,0,0,0-0.1,0c-0.2-0.1-0.4-0.1-0.6-0.2c-0.1,0-0.1,0-0.2-0.1c-0.2,0-0.3-0.1-0.5-0.1c-0.1,0-0.2,0-0.3,0c-0.1,0-0.3,0-0.4-0.1
	c-0.1,0-0.3,0-0.4,0c-0.1,0-0.2,0-0.3,0c0,0-0.1,0-0.1,0c-0.1,0-0.3,0-0.4,0c-1,0.1-2,0.3-2.8,0.6l-0.1,0l0,0
	c-2.9,1.3-5,4.1-5.2,7.5h-5.2V44.6c0-1.7,0.4-2.1,0.6-2.2c0.2-0.1,0.3-0.1,0.3-0.1l0.2,0.1l3.5-1.9l0.1-0.1c0,0,1.9-1.7,5.3-3.5
	c0.5-0.2,0.9-0.5,1.4-0.7c0.3-0.2,0.6-0.3,1-0.4c0.6-0.3,1.3-0.5,1.9-0.8c3.6-1.3,8-2.4,13-2.4c15.8,0,25.2,7.5,26.5,8.5
	c0,0,0,0,0,0c0,0,0.1,0.1,0.1,0.1c0,0,0,0,0,0l0,0l0.1,0.1l0.2,0l0,0c0,0,0.1,0,0.3,0c0,0,0,0,0,0c0.1,0,0.2,0,0.4,0
	c0,0,0.1,0,0.1,0c0.1,0,0.2,0,0.3,0.1c0.1,0,0.2,0,0.3,0.1c0.1,0,0.2,0,0.3,0c0.2,0,0.3,0.1,0.5,0.1c0.1,0,0.1,0,0.2,0
	c0.2,0,0.4,0.1,0.7,0.2c0,0,0.1,0,0.1,0c0.2,0.1,0.5,0.1,0.8,0.2c0,0,0.1,0,0.1,0c2.4,0.6,5.6,1.7,8.7,3.7c4.8,2.9,5.1,7.7,5.1,9.2
	H85.4z M45.4,34c-10.6,0-14.5,6.5-14.6,6.8l-0.4,0.8H68l-1.5-0.9C66.1,40.3,55.9,34,45.4,34z M32.2,40.5c1.3-1.7,5.3-5.6,13.2-5.6
	c7.8,0,15.7,3.8,19,5.6H32.2z"/>
</svg>
