<?xml version="1.0" encoding="utf-8"?>
<!-- Generator: Adobe Illustrator 23.0.1, SVG Export Plug-In . SVG Version: 6.00 Build 0)  -->
<svg version="1.1" id="Layer_2" xmlns="http://www.w3.org/2000/svg" xmlns:xlink="http://www.w3.org/1999/xlink" x="0px" y="0px"
	 viewBox="0 0 16 16" style="enable-background:new 0 0 16 16;" xml:space="preserve">
<style type="text/css">
	.st0{fill-rule:evenodd;clip-rule:evenodd;fill:#1C3664;}
	.st1{fill:#BC2025;}
	.st2{fill-rule:evenodd;clip-rule:evenodd;fill:#FFFFFF;}
	.st3{fill-rule:evenodd;clip-rule:evenodd;fill:#CCD8E6;}
	.st4{fill-rule:evenodd;clip-rule:evenodd;fill:#FEFEFE;}
	.st5{fill-rule:evenodd;clip-rule:evenodd;fill:#ABBDD5;}
	.st6{fill:#FFFFFF;}
	.st7{fill-rule:evenodd;clip-rule:evenodd;fill:#003465;}
	.st8{fill:#003465;}
	.st9{fill:#1C3664;}
</style>
<g id="_x34__stroke">
	<g id="Viber_1_">
		<path id="Viber" class="st2" d="M9,5.5c0.3,0.1,0.6,0.2,0.8,0.4c0.3,0.3,0.4,0.6,0.5,1c0,0.3,0,0.4-0.1,0.5
			c-0.1,0.1-0.3,0.1-0.4,0C9.7,7.4,9.7,7.3,9.6,7.1c0-0.2-0.1-0.4-0.1-0.5C9.4,6.3,9.1,6.1,8.7,6.1C8.5,6.1,8.4,6,8.4,6
			C8.2,5.8,8.3,5.6,8.5,5.5c0.1,0,0.1,0,0.2,0C8.8,5.5,8.9,5.5,9,5.5z M8.6,4.3c1,0.1,1.8,0.6,2.3,1.4c0.3,0.4,0.5,0.9,0.5,1.4
			c0,0.2,0,0.5,0,0.6c0,0.1-0.1,0.1-0.1,0.2c-0.1,0-0.2,0-0.3,0c-0.1-0.1-0.2-0.2-0.2-0.4c0-0.4-0.1-0.9-0.3-1.2
			C10.3,5.8,10,5.5,9.6,5.2C9.3,5,8.8,4.9,8.3,4.9c-0.2,0-0.2,0-0.3-0.1C7.9,4.6,7.9,4.5,8,4.4C8.1,4.2,8.2,4.2,8.6,4.3z M4.8,3.3
			c0.1,0,0.1,0.1,0.2,0.1c0.3,0.2,1.2,1.3,1.5,1.9C6.6,5.5,6.6,5.8,6.6,6C6.5,6.1,6.4,6.2,6,6.6C5.9,6.7,5.7,6.8,5.7,6.8
			C5.7,6.9,5.6,7.1,5.6,7.2C5.6,7.5,5.8,8,6,8.4c0.2,0.3,0.5,0.7,0.8,1c0.4,0.3,0.7,0.6,1.1,0.8c0.5,0.2,0.8,0.3,1,0.2
			C9,10.3,9,10.2,9,10.2c0,0,0.1-0.2,0.3-0.3c0.3-0.3,0.3-0.4,0.5-0.4c0.2-0.1,0.5-0.1,0.7,0.1c0.2,0.1,0.6,0.3,0.8,0.5
			c0.3,0.2,1,0.8,1.1,0.9c0.2,0.2,0.2,0.5,0.1,0.8c-0.1,0.3-0.6,0.9-0.9,1.1c-0.3,0.2-0.5,0.3-0.8,0.3c-0.2,0-0.3,0-0.6-0.1
			C8,12.1,6.1,10.7,4.7,8.8c-0.8-1-1.3-2.1-1.7-3.2C2.7,5,2.7,4.7,2.9,4.4C3,4.2,3.3,3.9,3.6,3.7C4,3.4,4.2,3.3,4.3,3.2
			C4.5,3.2,4.6,3.2,4.8,3.3z M8.5,3.1c0.6,0.1,1,0.2,1.5,0.4c0.5,0.2,0.8,0.5,1.2,0.9c0.4,0.4,0.6,0.7,0.8,1.1
			c0.3,0.6,0.5,1.4,0.5,2.2c0,0.3,0,0.3-0.1,0.4c-0.1,0.2-0.4,0.1-0.5,0c0-0.1,0-0.1,0-0.3c0-0.4,0-0.6-0.1-0.8
			c-0.2-1.1-0.7-1.9-1.5-2.5C9.7,4,9,3.7,8.1,3.7c-0.3,0-0.4,0-0.4-0.1c-0.1-0.1-0.1-0.3,0-0.5C7.7,3.1,7.8,3.1,8,3.1
			C8.2,3.1,8.4,3.1,8.5,3.1z"/>
	</g>
</g>
</svg>
