<?xml version="1.0" encoding="utf-8"?>
<!-- Generator: Adobe Illustrator 23.0.1, SVG Export Plug-In . SVG Version: 6.00 Build 0)  -->
<svg version="1.1" id="Layer_2" xmlns="http://www.w3.org/2000/svg" xmlns:xlink="http://www.w3.org/1999/xlink" x="0px" y="0px"
	 viewBox="0 0 330 60" style="enable-background:new 0 0 330 60;" xml:space="preserve">
<style type="text/css">
	.st0{fill-rule:evenodd;clip-rule:evenodd;fill:#1C3664;}
	.st1{fill:#BC2025;}
	.st2{fill-rule:evenodd;clip-rule:evenodd;fill:#FFFFFF;}
	.st3{fill-rule:evenodd;clip-rule:evenodd;fill:#CCD8E6;}
	.st4{fill-rule:evenodd;clip-rule:evenodd;fill:#FEFEFE;}
	.st5{fill-rule:evenodd;clip-rule:evenodd;fill:#ABBDD5;}
	.st6{fill:#FFFFFF;}
	.st7{fill-rule:evenodd;clip-rule:evenodd;fill:#003465;}
	.st8{fill:#003465;}
	.st9{fill:#1C3664;}
</style>
<g>
	<g>
		<path class="st8" d="M327.3,1l-23.3,28.6l-0.5,0.6l0.5,0.6L327.8,59H1.9l20.8-29.2l0.4-0.6l-0.4-0.6L2,1H327.3 M329.4,0H0
			l21.9,29.2L0,60h330l-25.1-29.7L329.4,0L329.4,0z"/>
	</g>
	<g>
		<path class="st8" d="M315.9,5.9l-19.3,23.7l-0.5,0.6l0.5,0.6l19.7,23.3H12.6l17.2-24.2l0.4-0.6l-0.4-0.6L12.7,5.9H315.9 M318,4.9
			H10.6L29,29.3L10.6,55.1h307.8l-21-24.9L318,4.9L318,4.9z"/>
	</g>
</g>
</svg>
