<?xml version="1.0" encoding="utf-8"?>
<!-- Generator: Adobe Illustrator 23.0.1, SVG Export Plug-In . SVG Version: 6.00 Build 0)  -->
<svg version="1.1" id="Layer_2" xmlns="http://www.w3.org/2000/svg" xmlns:xlink="http://www.w3.org/1999/xlink" x="0px" y="0px"
	 viewBox="0 0 100 75" style="enable-background:new 0 0 100 75;" xml:space="preserve">
<style type="text/css">
	.st0{fill-rule:evenodd;clip-rule:evenodd;fill:#1C3664;}
	.st1{fill:#BC2025;}
	.st2{fill-rule:evenodd;clip-rule:evenodd;fill:#FFFFFF;}
	.st3{fill-rule:evenodd;clip-rule:evenodd;fill:#CCD8E6;}
	.st4{fill-rule:evenodd;clip-rule:evenodd;fill:#FEFEFE;}
	.st5{fill-rule:evenodd;clip-rule:evenodd;fill:#ABBDD5;}
	.st6{fill:#FFFFFF;}
	.st7{fill-rule:evenodd;clip-rule:evenodd;fill:#003465;}
	.st8{fill:#003465;}
	.st9{fill:#1C3664;}
</style>
<path class="st9" d="M56.9,18.9H37.4v-1h19.4V18.9z M56.9,22.5H37.4v1h19.4V22.5z M56.9,27.1H37.4v1h19.4V27.1z M56.9,31.7H37.4v1
	h19.4V31.7z M56.9,36.2H37.4v1h19.4V36.2z M56.9,40.8H37.4v1h19.4V40.8z M56.9,45.4H37.4v1h19.4V45.4z M74.2,9.6V75H25.8V9.6H74.2z
	 M73.2,10.6H26.8V74h46.3V10.6z M54.2,51H37.4v-1h19.3c0.8-0.2,1.7-0.3,2.5-0.3c5.8,0,10.5,4.7,10.5,10.5S65,70.6,59.2,70.6
	c-5.8,0-10.5-4.7-10.5-10.5C48.8,56.2,51,52.8,54.2,51z M59.2,50.7c-0.8,0-1.6,0.1-2.4,0.3v0h0c-4,1.1-7,4.8-7,9.1
	c0,5.2,4.2,9.5,9.5,9.5s9.5-4.2,9.5-9.5S64.5,50.7,59.2,50.7z M59.2,53.9c3.4,0,6.2,2.8,6.2,6.2s-2.8,6.2-6.2,6.2S53,63.5,53,60.1
	S55.8,53.9,59.2,53.9z M59.2,54.9c-2.9,0-5.2,2.3-5.2,5.2s2.3,5.2,5.2,5.2s5.2-2.3,5.2-5.2S62.1,54.9,59.2,54.9z"/>
</svg>
