<?xml version="1.0" encoding="utf-8"?>
<!-- Generator: Adobe Illustrator 23.0.1, SVG Export Plug-In . SVG Version: 6.00 Build 0)  -->
<svg version="1.1" id="Layer_2" xmlns="http://www.w3.org/2000/svg" xmlns:xlink="http://www.w3.org/1999/xlink" x="0px" y="0px"
	 viewBox="0 0 100 75" style="enable-background:new 0 0 100 75;" xml:space="preserve">
<style type="text/css">
	.st0{fill-rule:evenodd;clip-rule:evenodd;fill:#1C3664;}
	.st1{fill:#BC2025;}
	.st2{fill-rule:evenodd;clip-rule:evenodd;fill:#FFFFFF;}
	.st3{fill-rule:evenodd;clip-rule:evenodd;fill:#CCD8E6;}
	.st4{fill-rule:evenodd;clip-rule:evenodd;fill:#FEFEFE;}
	.st5{fill-rule:evenodd;clip-rule:evenodd;fill:#ABBDD5;}
	.st6{fill:#FFFFFF;}
	.st7{fill-rule:evenodd;clip-rule:evenodd;fill:#003465;}
	.st8{fill:#003465;}
	.st9{fill:#1C3664;}
</style>
<g>
	<g>
		<g>
			<path class="st9" d="M65.4,22.6c-0.7-2.5-3.2-3.8-5.9-5c-1.1-0.5-2.3-2.5-2.6-3.4c-0.4-1.3-1.7-2.7-3.1-2.7
				c-0.5,0-1.1,0.2-1.5,0.5l-0.6-0.8c0.7-0.5,1.4-0.7,2.1-0.7c2,0,3.5,1.7,4.1,3.3c0.3,0.8,1.4,2.5,2.1,2.8c3,1.3,5.7,2.7,6.5,5.6
				L65.4,22.6z"/>
		</g>
		<g>
			<path class="st9" d="M62.9,31.5H36.6v-7.3c0-4.4,3.4-6.2,6.8-7.5c0.8-0.3,2.2-1.9,2.6-2.8c0.6-1.7,2.1-3.3,4.1-3.3
				c2,0,3.5,1.7,4.1,3.3c0.3,0.8,1.4,2.5,2.1,2.8l0,0c3.5,1.5,6.7,3.3,6.7,7.5V31.5z M37.6,30.5h24.3v-6.3c0-3.6-2.8-5.1-6.1-6.6
				l0,0c-1.1-0.5-2.3-2.5-2.6-3.4c-0.4-1.3-1.7-2.7-3.1-2.7c-1.4,0-2.6,1.3-3.1,2.7c-0.4,1-2,3-3.1,3.4c-4.3,1.6-6.1,3.5-6.1,6.6
				V30.5z M50,18.5c-1.4,0-2.5-1.1-2.5-2.5c0-1.4,1.1-2.5,2.5-2.5c1.4,0,2.5,1.1,2.5,2.5C52.5,17.4,51.4,18.5,50,18.5z M50,14.5
				c-0.8,0-1.5,0.7-1.5,1.5s0.7,1.5,1.5,1.5s1.5-0.7,1.5-1.5S50.8,14.5,50,14.5z"/>
		</g>
	</g>
	<g>
		<g>
			<polygon class="st9" points="47.5,58.4 37.5,48.4 38.2,47.7 47.5,57 65.8,38.7 66.5,39.4 			"/>
		</g>
	</g>
	<g>
		<rect x="37.8" y="34.2" class="st9" width="18.3" height="1"/>
	</g>
	<g>
		<rect x="37.8" y="38.5" class="st9" width="18.3" height="1"/>
	</g>
	<g>
		<rect x="37.8" y="42.9" class="st9" width="18.3" height="1"/>
	</g>
	<g>
		<path class="st9" d="M69.5,65.3H30.5V26h7.1v4.5h24.3V26h7.6V65.3z M31.5,64.3h37.1V27h-5.6v4.5H36.6V27h-5.1V64.3z"/>
	</g>
	<g>
		<path class="st9" d="M76.6,75H23.4V21.7h14.7l-0.2,0.6c-0.2,0.5-0.3,1.1-0.3,1.8v6.3h24.3v-6.3c0-0.6-0.1-1.2-0.3-1.8l-0.2-0.7
			h15.2V75z M24.4,74h51.3V22.7H62.8c0.1,0.5,0.1,0.9,0.1,1.4v7.3H36.6v-7.3c0-0.5,0-1,0.1-1.4H24.4V74z"/>
	</g>
</g>
</svg>
