<?xml version="1.0" encoding="utf-8"?>
<!-- Generator: Adobe Illustrator 23.0.1, SVG Export Plug-In . SVG Version: 6.00 Build 0)  -->
<svg version="1.1" id="Layer_2" xmlns="http://www.w3.org/2000/svg" xmlns:xlink="http://www.w3.org/1999/xlink" x="0px" y="0px"
	 viewBox="0 0 100 75" style="enable-background:new 0 0 100 75;" xml:space="preserve">
<style type="text/css">
	.st0{fill-rule:evenodd;clip-rule:evenodd;fill:#1C3664;}
	.st1{fill:#BC2025;}
	.st2{fill-rule:evenodd;clip-rule:evenodd;fill:#FFFFFF;}
	.st3{fill-rule:evenodd;clip-rule:evenodd;fill:#CCD8E6;}
	.st4{fill-rule:evenodd;clip-rule:evenodd;fill:#FEFEFE;}
	.st5{fill-rule:evenodd;clip-rule:evenodd;fill:#ABBDD5;}
	.st6{fill:#FFFFFF;}
	.st7{fill-rule:evenodd;clip-rule:evenodd;fill:#003465;}
	.st8{fill:#003465;}
	.st9{fill:#1C3664;}
</style>
<path class="st9" d="M93.4,69.2c-0.4-1.1-1.2-1.9-2.2-2.4L65.9,55.3c-0.8-0.4-1.7-0.5-2.6-0.3l0.5-1c1-2.1,0-4.6-2.1-5.5
	c-1-0.5-2.2-0.5-3.3-0.1c2.8-12.2-3.3-24.6-14.8-29.8C37.1,15.8,30,15.5,23.4,18c-6.6,2.5-11.8,7.4-14.7,13.8
	C2.7,45,8.6,60.6,21.8,66.6c10.5,4.7,22.6,2.2,30.2-6.1c0,0.5,0.1,1,0.3,1.4c0.4,1,1.2,1.9,2.2,2.3c2.1,1,4.6,0,5.5-2.1l0.4-0.8
	c0.4,0.8,1.1,1.4,1.9,1.8l25.3,11.4c0.6,0.3,1.2,0.4,1.8,0.4c0.5,0,1-0.1,1.5-0.3c1.1-0.4,1.9-1.2,2.4-2.2
	C93.7,71.4,93.8,70.3,93.4,69.2z M92.4,72.1c-0.4,0.8-1,1.4-1.8,1.7c-0.8,0.3-1.7,0.3-2.5-0.1L62.7,62.3c-0.9-0.4-1.6-1.3-1.8-2.3
	l-0.3-1.4l-1.5,3.2c-0.7,1.6-2.6,2.3-4.2,1.6c-0.8-0.3-1.4-1-1.7-1.8c-0.3-0.8-0.3-1.7,0.1-2.4l1.9-4.3l-2.6,3.3
	c-7.2,9.3-19.7,12.3-30.4,7.5C9.5,59.9,3.8,44.9,9.6,32.2c2.8-6.2,7.8-10.9,14.1-13.3c6.3-2.4,13.2-2.2,19.4,0.6
	c11.4,5.2,17.3,17.7,14,29.8l-0.4,1.5l1.2-1c1-0.8,2.2-0.9,3.3-0.4c1.6,0.7,2.3,2.6,1.6,4.2l-1.6,3.4l1.3-0.7c0.9-0.5,2-0.5,2.9-0.1
	l25.3,11.4c0.8,0.4,1.4,1,1.7,1.8C92.7,70.4,92.7,71.3,92.4,72.1z M50.6,35.9c-1.8-4.8-5.4-8.6-10-10.7c-4.7-2.1-9.9-2.3-14.7-0.5
	c-1.1,0.4-2.1,0.9-3,1.5l-0.1,0l-0.2,0.1c-0.5,0.2-0.9,0.6-1.3,1c0,0-0.1,0.1-0.1,0.1c-0.3,0.2-0.6,0.5-0.9,0.7l-0.8,0.5l0.2,0.1
	c-1.2,1.1-2.2,2.4-3.1,3.8h0l-0.1,0.2c0,0.1-0.1,0.1-0.1,0.2c-0.1,0.2-0.2,0.3-0.3,0.5c-0.3,0.5-0.5,0.9-0.7,1.4
	c-0.2,0.5-0.5,1.1-0.6,1.6c-0.1,0.3-0.2,0.6-0.3,0.9c-0.1,0.2-0.1,0.5-0.2,0.7c-0.1,0.4-0.2,0.8-0.3,1.2c0,0.1,0,0.3-0.1,0.4
	c-0.1,0.5-0.1,0.9-0.2,1.4c0,0,0,0.1,0,0.1c-0.2,2.8,0.1,5.6,1.2,8.3c1.8,4.8,5.4,8.6,10,10.7c2.5,1.1,5.2,1.7,7.9,1.7
	c2.3,0,4.6-0.4,6.8-1.2c4.8-1.8,8.6-5.4,10.7-10c0.4-0.9,0.7-1.7,1-2.6h0.1l0.1-0.4c0-0.1,0-0.2,0.1-0.2l0,0
	c0.4-0.9,0.5-2.3,0.5-3.3l0-0.3c0,0,0-0.1,0-0.1C52,40.9,51.6,38.3,50.6,35.9z M50.4,46.9h-1.1c-0.3-4.6-4.1-8.2-8.7-8.2
	c-4.6,0-8.4,3.6-8.7,8.2H15c-0.5-1.9-0.6-4-0.4-5.9c0,0,0-0.1,0-0.1c0-0.4,0.1-0.9,0.2-1.3c0-0.1,0-0.3,0.1-0.4
	c0.1-0.4,0.1-0.7,0.2-1.1c0.1-0.2,0.1-0.5,0.2-0.7c0.1-0.3,0.2-0.5,0.2-0.8c0.2-0.5,0.4-1,0.6-1.5c0.2-0.5,0.4-0.9,0.7-1.4
	c0.1-0.1,0.1-0.3,0.2-0.4c0,0,0,0,0,0h15l-1.5-0.9c0,0-3.8-2.3-8.9-4.2c0.1-0.1,0.1-0.1,0.2-0.2c0.4-0.3,0.8-0.6,1.2-0.8
	c7,2.5,10.8,5.9,10.9,5.9l0.1,0.1l0.2,0c0.1,0,6.4,0.6,12.7,4.4c1.8,1.1,3.1,2.5,4,4.3l0,0.4c0,0.3,0,0.7,0,1
	C50.8,44.6,50.6,45.8,50.4,46.9z M26.3,25.6c2.1-0.8,4.3-1.2,6.4-1.2c2.6,0,5.1,0.5,7.5,1.6c4.4,2,7.8,5.6,9.5,10.2
	c0.4,1.2,0.8,2.4,0.9,3.6c-0.9-1.2-1.9-2.2-3.2-3c-6-3.6-11.9-4.4-13-4.6c-0.7-0.6-4.2-3.4-10.3-5.7C24.8,26.2,25.5,25.9,26.3,25.6z
	 M20.7,29c3.3,1.1,6.1,2.5,7.7,3.4H17.7C18.5,31.1,19.5,30,20.7,29z M49.2,50.1c-2,4.4-5.6,7.8-10.2,9.5c-4.5,1.7-9.5,1.6-13.9-0.5
	c-4.4-2-7.8-5.6-9.5-10.2c-0.1-0.4-0.3-0.8-0.4-1.1h17.6v-0.5c0-4.2,3.5-7.7,7.7-7.7c4.1,0,7.5,3.3,7.7,7.3l0,0.9h1.8
	C49.8,48.7,49.6,49.4,49.2,50.1z M40.6,40.4c-3.9,0-7,3.2-7,7s3.2,7,7,7s7-3.2,7-7S44.5,40.4,40.6,40.4z M40.6,53.4
	c-3.3,0-6-2.7-6-6s2.7-6,6-6s6,2.7,6,6S43.9,53.4,40.6,53.4z M40.6,42c-3,0-5.4,2.4-5.4,5.4s2.4,5.4,5.4,5.4s5.4-2.4,5.4-5.4
	S43.6,42,40.6,42z M40.6,51.9c-2.5,0-4.4-2-4.4-4.4s2-4.4,4.4-4.4c2.5,0,4.4,2,4.4,4.4S43.1,51.9,40.6,51.9z"/>
</svg>
