<?xml version="1.0" encoding="utf-8"?>
<!-- Generator: Adobe Illustrator 23.0.1, SVG Export Plug-In . SVG Version: 6.00 Build 0)  -->
<svg version="1.1" id="Layer_2" xmlns="http://www.w3.org/2000/svg" xmlns:xlink="http://www.w3.org/1999/xlink" x="0px" y="0px"
	 viewBox="0 0 100 75" style="enable-background:new 0 0 100 75;" xml:space="preserve">
<style type="text/css">
	.st0{fill-rule:evenodd;clip-rule:evenodd;fill:#1C3664;}
	.st1{fill:#BC2025;}
	.st2{fill-rule:evenodd;clip-rule:evenodd;fill:#FFFFFF;}
	.st3{fill-rule:evenodd;clip-rule:evenodd;fill:#CCD8E6;}
	.st4{fill-rule:evenodd;clip-rule:evenodd;fill:#FEFEFE;}
	.st5{fill-rule:evenodd;clip-rule:evenodd;fill:#ABBDD5;}
	.st6{fill:#FFFFFF;}
	.st7{fill-rule:evenodd;clip-rule:evenodd;fill:#003465;}
	.st8{fill:#003465;}
	.st9{fill:#1C3664;}
</style>
<path class="st9" d="M94.1,67.5c-1.7-3.7-4.7-6.8-8.4-8.6C62.7,47.7,55.8,44.6,53.6,44c0.1-0.3,0.1-0.6,0-0.9
	c-0.1-0.5-0.4-0.9-0.8-1.2c-0.1,0-0.1-0.1-0.2-0.1c-0.1-1.5-0.2-2.3-0.4-2.8c0.9-1.2,2.6-3.7,2.4-4.6c0-0.1-0.1-0.2-0.1-0.3
	c-0.1-0.4-0.2-1.4-0.3-2.2l1,0.6c0.4,0.3,1,0.4,1.5,0.3s1-0.4,1.3-0.9l1.3-2c0.6-0.9,0.3-2.2-0.6-2.8L42.3,16.6
	c-0.9-0.6-2.2-0.3-2.8,0.6l-1.3,2c-0.6,0.9-0.3,2.2,0.6,2.8l1,0.6c-0.8,0.2-1.7,0.5-2.1,0.6C37.2,23,36.6,23.3,36,24
	c-0.2,0.2-0.9,1-0.8,1.7c-0.1,0.1-0.2,0.2-0.3,0.3l-7.7,11.8c-0.1,0.1-0.1,0.2-0.2,0.4c-0.7,0.2-1.1,1.2-1.3,1.5
	c-0.4,0.9-0.4,1.5-0.1,1.9c0.1,0.4,0.2,1.4,0.3,2.1l-1-0.6c-0.4-0.3-1-0.4-1.5-0.3c-0.5,0.1-1,0.4-1.3,0.9l-1.3,2
	c-0.3,0.4-0.4,1-0.3,1.5s0.4,1,0.9,1.3l16.4,10.7c0.2,0.1,0.3,0.2,0.5,0.2h-26c-1.9,0-3.5,1.6-3.5,3.5C9,63,9,63.2,9,63.4
	c-2.8,1.5-4.6,4.5-4.6,7.6v3.3l0,0.7h60.4l0.5-0.1l0-0.6l-0.5,0v0h0.5V71c0-3.1-1.6-5.9-4.3-7.5c0.1-0.2,0.1-0.5,0.1-0.7
	c0-1.9-1.6-3.5-3.5-3.5H39.6c0.4-0.1,0.8-0.4,1.1-0.8l1.3-2c0.3-0.4,0.4-1,0.3-1.5s-0.4-1-0.9-1.3l-1-0.6c0.8-0.2,1.8-0.5,2.1-0.6
	c0.1,0,0.2,0,0.3,0c0.9-0.2,2.7-3,3.5-4.5c0.5-0.1,1.3-0.3,2.7-0.8c0.1,0.1,0.1,0.1,0.2,0.1c0.7,0.5,1.6,0.4,2.2-0.1
	c1.5,1.7,7.2,6.9,27.4,23.9c2.6,2.2,5.9,3.5,9.3,3.6c0.8,0,1.4,0,2,0c3.4,0,3.7-0.3,3.8-0.6l1.5-2.3C95.6,71.7,95.9,71.3,94.1,67.5z
	 M60.2,62.8c0,0.3,0,0.5-0.1,0.8L59.9,64l0.4,0.2c2.5,1.3,4.1,3.9,4.1,6.8v3h-59v-3c0-2.9,1.7-5.6,4.4-6.9l0.4-0.2l-0.1-0.4
	C10,63.2,10,63,10,62.8c0-1.4,1.1-2.5,2.5-2.5h45.3C59.1,60.4,60.2,61.5,60.2,62.8z M93.2,73.6c-0.4,0.1-1.9,0.3-5,0.2
	c-3.2-0.1-6.3-1.3-8.7-3.3c-16.2-13.7-26.7-22.8-27.5-24c0-0.1-0.1-0.2-0.2-0.3c-0.2-0.1-0.5-0.1-0.7,0.1c-0.3,0.4-0.8,0.5-1.2,0.3
	c-0.1,0-0.1-0.1-0.2-0.2c-0.1-0.2-0.4-0.2-0.6-0.2c-1.1,0.4-2.4,0.8-2.8,0.9c0,0-0.1,0-0.1,0c-0.2,0-0.4,0.1-0.5,0.3
	c-1.1,1.9-2.5,3.9-3,4.3c-0.1,0-0.2,0-0.2,0c0,0-3,0.8-3.3,0.9c-0.2,0.1-0.3,0.2-0.3,0.4s0.1,0.4,0.2,0.5l1.9,1.2
	c0.2,0.1,0.4,0.4,0.4,0.6c0.1,0.3,0,0.5-0.1,0.8l-1.3,2c-0.3,0.5-0.9,0.6-1.4,0.3L22.1,47.6c-0.2-0.1-0.4-0.4-0.4-0.6s0-0.5,0.1-0.8
	l1.3-2c0.3-0.5,0.9-0.6,1.4-0.3l1.9,1.2c0.2,0.1,0.4,0.1,0.5,0c0.2-0.1,0.3-0.3,0.2-0.5c0-0.3-0.5-3.4-0.5-3.4
	c0-0.1-0.1-0.2-0.2-0.3c0-0.1,0-0.4,0.2-0.8c0.2-0.6,0.6-0.9,0.7-1c0.1,0,0.2,0,0.3-0.1c0.1-0.1,0.2-0.2,0.2-0.3
	c0-0.1,0.1-0.3,0.1-0.4l7.7-11.8c0.1-0.1,0.2-0.2,0.3-0.3c0.1-0.1,0.2-0.2,0.2-0.4c0-0.1,0-0.2-0.1-0.3c0-0.2,0.2-0.6,0.6-1.1
	c0.3-0.4,0.6-0.5,0.6-0.5c0.1,0.1,0.3,0.1,0.4,0.1c0,0,3-0.8,3.3-0.9c0.2-0.1,0.3-0.2,0.3-0.4s-0.1-0.4-0.2-0.5l-1.9-1.2
	c-0.5-0.3-0.6-0.9-0.3-1.4l1.3-2c0.3-0.5,0.9-0.6,1.4-0.3l16.4,10.7c0.5,0.3,0.6,0.9,0.3,1.4l-1.3,2c-0.1,0.2-0.4,0.4-0.6,0.4
	c-0.3,0.1-0.5,0-0.8-0.1l-1.9-1.2c-0.2-0.1-0.4-0.1-0.5,0c-0.2,0.1-0.3,0.3-0.2,0.5c0,0.3,0.5,3.4,0.5,3.4c0,0.1,0,0.2,0.1,0.2
	c-0.1,0.6-1.3,2.5-2.4,4c-0.1,0.2-0.1,0.4,0,0.5c0,0,0.1,0.1,0.1,0.1c0.1,0.4,0.3,1.7,0.4,2.9c0,0.2,0.2,0.4,0.4,0.4
	c0.1,0,0.2,0.1,0.3,0.1c0.2,0.1,0.3,0.3,0.4,0.6c0,0.2,0,0.5-0.1,0.7c-0.2,0.2-0.1,0.5,0.1,0.7c0.1,0.1,0.2,0.1,0.4,0.1
	c1.4,0.3,13.4,5.9,32.3,15.1c3.5,1.7,6.3,4.6,7.9,8.1c1,2.2,1.3,3.2,1.4,3.5L93.2,73.6z"/>
</svg>
