<?xml version="1.0" encoding="utf-8"?>
<!-- Generator: Adobe Illustrator 23.0.1, SVG Export Plug-In . SVG Version: 6.00 Build 0)  -->
<svg version="1.1" id="Layer_2" xmlns="http://www.w3.org/2000/svg" xmlns:xlink="http://www.w3.org/1999/xlink" x="0px" y="0px"
	 viewBox="0 0 100 75" style="enable-background:new 0 0 100 75;" xml:space="preserve">
<style type="text/css">
	.st0{fill-rule:evenodd;clip-rule:evenodd;fill:#1C3664;}
	.st1{fill:#BC2025;}
	.st2{fill-rule:evenodd;clip-rule:evenodd;fill:#FFFFFF;}
	.st3{fill-rule:evenodd;clip-rule:evenodd;fill:#CCD8E6;}
	.st4{fill-rule:evenodd;clip-rule:evenodd;fill:#FEFEFE;}
	.st5{fill-rule:evenodd;clip-rule:evenodd;fill:#ABBDD5;}
	.st6{fill:#FFFFFF;}
	.st7{fill-rule:evenodd;clip-rule:evenodd;fill:#003465;}
	.st8{fill:#003465;}
	.st9{fill:#1C3664;}
</style>
<path class="st9" d="M20.9,57.3c-4.9,0-8.9,4-8.9,8.9c0,4.9,4,8.9,8.9,8.9s8.9-4,8.9-8.9C29.7,61.2,25.8,57.3,20.9,57.3z M20.9,74
	c-4.3,0-7.9-3.5-7.9-7.9s3.5-7.9,7.9-7.9s7.9,3.5,7.9,7.9S25.2,74,20.9,74z M89.3,52.7c-7.7-4.6-15.4-5.7-16.6-5.8
	c-0.9-0.8-6-5-15.1-8.1c0.4-0.5,0.8-1,1.2-1.5c0,0,0,0,0,0c0.4-0.5,0.7-1.1,1-1.6h30.4c4.3,0,7.7-3.5,7.7-7.7s-3.5-7.7-7.7-7.7H60
	c-2.9-5.4-8.4-8.8-14.5-8.8c-6.2,0-11.9,3.5-14.7,9.1l-0.4,0.7h10.4c3.5,0,6.3,2.8,6.3,6.3c0,3.5-2.8,6.3-6.3,6.3H30.2l0.3,0.7
	c0.1,0.3,0.3,0.6,0.5,0.9c0.1,0.2,0.2,0.3,0.3,0.5c0,0.1,0.1,0.1,0.1,0.2c-13.5,1.9-22.2,9.1-22.9,9.7l-4,2.1
	C4.1,48,3.7,48,3.2,48.3C2.4,48.8,2,50.1,2,52.1v14.5h8.9v-0.5c0-5.5,4.5-10,10-10s10,4.5,10,10v0.5h39.9v-0.5c0-5.5,4.5-10,10-10
	c5.3,0,9.7,4.3,10,9.5l0,1h5.6l0-0.5C96.4,66.1,97.1,57.4,89.3,52.7z M40.8,34.9c4,0,7.3-3.3,7.3-7.3c0-4-3.3-7.3-7.3-7.3h-8.7
	c2.7-4.8,7.8-7.8,13.4-7.8c5.9,0,11.1,3.3,13.8,8.5l0.1,0.3h30.9c3.7,0,6.7,3,6.7,6.7c0,3.7-3,6.7-6.7,6.7h-31l-0.1,0.3
	c-0.2,0.3-0.4,0.7-0.6,1c0,0,0,0,0,0.1c-0.6,1-1.3,1.9-2.2,2.7l-0.5,0.5c-0.7,0.6-1.5,1.2-2.3,1.7l-0.1,0c-2.4,1.5-5.2,2.3-8.1,2.3
	c-0.4,0-0.8,0-1.3-0.1c-0.1,0-0.3,0-0.4,0c-0.3,0-0.6-0.1-0.8-0.1c-0.2,0-0.3-0.1-0.5-0.1c-0.3-0.1-0.6-0.1-0.8-0.2
	c-0.2,0-0.3-0.1-0.5-0.1c-0.3-0.1-0.6-0.2-1-0.3c-0.2-0.1-0.4-0.2-0.6-0.2c-0.2-0.1-0.4-0.2-0.5-0.2c-0.2-0.1-0.4-0.2-0.6-0.3
	c-0.2-0.1-0.3-0.2-0.5-0.3c-0.3-0.2-0.6-0.3-0.8-0.5c-0.2-0.1-0.4-0.3-0.6-0.4c-0.2-0.1-0.3-0.2-0.5-0.4c-0.2-0.1-0.4-0.3-0.5-0.4
	c-1.1-1-2.1-2.1-2.9-3.3c-0.3-0.5-0.6-0.9-0.8-1.4H40.8z M35.2,40.6c0.2,0.1,0.4,0.3,0.5,0.4c0.2,0.1,0.4,0.3,0.6,0.4
	c0.2,0.1,0.3,0.2,0.5,0.3c0.2,0.1,0.4,0.3,0.7,0.4c0.2,0.1,0.3,0.2,0.5,0.2c0.2,0.1,0.5,0.2,0.7,0.3c0.2,0.1,0.3,0.1,0.5,0.2
	c0.4,0.2,0.8,0.3,1.2,0.5c0.2,0.1,0.4,0.1,0.7,0.2c0.2,0.1,0.4,0.1,0.6,0.2c0.2,0.1,0.5,0.1,0.7,0.2c0.2,0,0.4,0.1,0.6,0.1
	c0.3,0,0.6,0.1,0.9,0.1c0.2,0,0.3,0,0.5,0.1c0.4,0,0.9,0.1,1.3,0.1c0.4,0,0.7,0,1.1,0c2.6-0.2,5.1-1,7.3-2.3
	c5.2,1.7,9.5,3.9,11.7,5.1h-42c1.2-1.6,4.7-5.2,11.2-6.7C34.9,40.4,35,40.5,35.2,40.6z M91.7,65.6c-0.3-5.9-5.1-10.5-11-10.5
	c-5.9,0-10.7,4.7-11,10.5H31.8c-0.3-5.8-5.1-10.5-11-10.5s-10.7,4.7-11,10.5H3V52.1c0-2.1,0.5-2.8,0.8-3C4,48.9,4.3,49,4.3,49
	l0.2,0.1L9,46.8L9,46.7c0.1-0.1,8.9-7.7,22.9-9.6c0.6,0.9,1.2,1.7,2,2.4c-8.3,2.1-11.6,7.5-11.7,7.8L21.8,48h47.4l-1.5-0.9
	c-0.1,0-5.5-3.4-12.8-5.9c0.7-0.5,1.3-1,1.9-1.6c9.8,3.2,15.3,8.1,15.3,8.1l0.1,0.1l0.2,0c0.1,0,8.2,0.8,16.4,5.7
	c6.2,3.8,6.6,10.3,6.6,12H91.7z M80.7,57.3c-4.9,0-8.9,4-8.9,8.9c0,4.9,4,8.9,8.9,8.9s8.9-4,8.9-8.9C89.6,61.2,85.6,57.3,80.7,57.3z
	 M80.7,74c-4.3,0-7.9-3.5-7.9-7.9s3.5-7.9,7.9-7.9s7.9,3.5,7.9,7.9S85,74,80.7,74z M80.7,59.3c-3.8,0-6.8,3.1-6.8,6.8
	c0,3.8,3.1,6.8,6.8,6.8s6.8-3.1,6.8-6.8C87.5,62.4,84.5,59.3,80.7,59.3z M80.7,72c-3.2,0-5.8-2.6-5.8-5.8s2.6-5.8,5.8-5.8
	s5.8,2.6,5.8,5.8S83.9,72,80.7,72z M20.9,59.3c-3.8,0-6.8,3.1-6.8,6.8c0,3.8,3.1,6.8,6.8,6.8s6.8-3.1,6.8-6.8
	C27.7,62.4,24.6,59.3,20.9,59.3z M20.9,72c-3.2,0-5.8-2.6-5.8-5.8s2.6-5.8,5.8-5.8s5.8,2.6,5.8,5.8S24.1,72,20.9,72z"/>
</svg>
