<?xml version="1.0" encoding="utf-8"?>
<!-- Generator: Adobe Illustrator 23.0.1, SVG Export Plug-In . SVG Version: 6.00 Build 0)  -->
<svg version="1.1" id="Layer_2" xmlns="http://www.w3.org/2000/svg" xmlns:xlink="http://www.w3.org/1999/xlink" x="0px" y="0px"
	 viewBox="0 0 100 75" style="enable-background:new 0 0 100 75;" xml:space="preserve">
<style type="text/css">
	.st0{fill-rule:evenodd;clip-rule:evenodd;fill:#1C3664;}
	.st1{fill:#BC2025;}
	.st2{fill-rule:evenodd;clip-rule:evenodd;fill:#FFFFFF;}
	.st3{fill-rule:evenodd;clip-rule:evenodd;fill:#CCD8E6;}
	.st4{fill-rule:evenodd;clip-rule:evenodd;fill:#FEFEFE;}
	.st5{fill-rule:evenodd;clip-rule:evenodd;fill:#ABBDD5;}
	.st6{fill:#FFFFFF;}
	.st7{fill-rule:evenodd;clip-rule:evenodd;fill:#003465;}
	.st8{fill:#003465;}
	.st9{fill:#1C3664;}
</style>
<path class="st9" d="M54.4,23.9v-5h5.7v-7.3H41.6v7.3h5.6v5c-12.6,1.7-22.4,12.5-22.4,25.6c0,14.2,11.6,25.8,25.8,25.8
	s25.8-11.6,25.8-25.8C76.5,36.4,66.9,25.6,54.4,23.9z M54.4,17.8h-3v-5.3h3.5v5.3H54.4z M59.1,17.8h-3.2v-5.3h3.2V17.8z M42.6,12.6
	h3.2v5.3h-3.2V12.6z M46.9,17.8v-5.3h3.5v5.3h-3.1H46.9z M53.4,18.8v4.3h-5.1v-4.3H53.4z M50.7,74.2c-13.7,0-24.8-11.1-24.8-24.8
	S37,24.6,50.7,24.6s24.8,11.1,24.8,24.8S64.4,74.2,50.7,74.2z M50.7,30.2c-10.6,0-19.2,8.6-19.2,19.2s8.6,19.2,19.2,19.2
	S69.9,60,69.9,49.4S61.3,30.2,50.7,30.2z M50.7,67.7c-10.1,0-18.2-8.2-18.2-18.2s8.2-18.2,18.2-18.2s18.2,8.2,18.2,18.2
	S60.8,67.7,50.7,67.7z M57.1,37.1l-4.9,10.4c0.6,0.4,0.9,1.1,0.9,1.9c0,1.3-1.1,2.4-2.4,2.4s-2.4-1.1-2.4-2.4s1.1-2.4,2.4-2.4
	c0.2,0,0.4,0,0.5,0.1l4.9-10.4L57.1,37.1z"/>
</svg>
