<?xml version="1.0" encoding="utf-8"?>
<!-- Generator: Adobe Illustrator 23.0.1, SVG Export Plug-In . SVG Version: 6.00 Build 0)  -->
<svg version="1.1" id="Layer_2" xmlns="http://www.w3.org/2000/svg" xmlns:xlink="http://www.w3.org/1999/xlink" x="0px" y="0px"
	 viewBox="0 0 42 55" style="enable-background:new 0 0 42 55;" xml:space="preserve">
<style type="text/css">
	.st0{fill-rule:evenodd;clip-rule:evenodd;fill:#1C3664;}
	.st1{fill:#BC2025;}
	.st2{fill-rule:evenodd;clip-rule:evenodd;fill:#FFFFFF;}
	.st3{fill-rule:evenodd;clip-rule:evenodd;fill:#CCD8E6;}
	.st4{fill-rule:evenodd;clip-rule:evenodd;fill:#FEFEFE;}
	.st5{fill-rule:evenodd;clip-rule:evenodd;fill:#ABBDD5;}
	.st6{fill:#FFFFFF;}
	.st7{fill-rule:evenodd;clip-rule:evenodd;fill:#003465;}
	.st8{fill:#003465;}
	.st9{fill:#1C3664;}
</style>
<path class="st6" d="M21,1.2c10.9,0,19.7,8.2,19.7,18.3c0,15.7-16.3,32.3-19.6,34.2c-3-2.1-19.8-19.1-19.8-34.2
	C1.3,9.4,10.1,1.2,21,1.2 M21,26.5c4.2,0,7.6-3.1,7.6-7s-3.4-7-7.6-7c-4.2,0-7.6,3.1-7.6,7S16.8,26.5,21,26.5 M21,0
	C9.4,0,0,8.7,0,19.5C0,35.9,19.5,55,21,55c2,0,21-18.3,21-35.5C42,8.7,32.6,0,21,0L21,0z M21,25.3c-3.5,0-6.3-2.6-6.3-5.8
	s2.8-5.8,6.3-5.8c3.5,0,6.3,2.6,6.3,5.8S24.5,25.3,21,25.3L21,25.3z"/>
</svg>
