<?xml version="1.0" encoding="utf-8"?>
<!-- Generator: Adobe Illustrator 23.0.1, SVG Export Plug-In . SVG Version: 6.00 Build 0)  -->
<svg version="1.1" id="Layer_2" xmlns="http://www.w3.org/2000/svg" xmlns:xlink="http://www.w3.org/1999/xlink" x="0px" y="0px"
	 viewBox="0 0 74 74" style="enable-background:new 0 0 74 74;" xml:space="preserve">
<style type="text/css">
	.st0{fill-rule:evenodd;clip-rule:evenodd;fill:#1C3664;}
	.st1{fill:#BC2025;}
	.st2{fill-rule:evenodd;clip-rule:evenodd;fill:#FFFFFF;}
	.st3{fill-rule:evenodd;clip-rule:evenodd;fill:#CCD8E6;}
	.st4{fill-rule:evenodd;clip-rule:evenodd;fill:#FEFEFE;}
	.st5{fill-rule:evenodd;clip-rule:evenodd;fill:#ABBDD5;}
	.st6{fill:#FFFFFF;}
	.st7{fill-rule:evenodd;clip-rule:evenodd;fill:#003465;}
	.st8{fill:#003465;}
	.st9{fill:#1C3664;}
</style>
<g id="XMLID_2_">
	<path id="XMLID_4_" class="st6" d="M55.3,48.6l-0.2-0.5c-0.6-1.5-8.6-3.9-9.2-3.9l-0.5,0c-1.1,0.2-2.3,1.2-4.8,3.5
		c-2.8-1.3-6.7-4.8-8.5-6.8c-2-2.2-4.4-6-5.3-8.7c2.9-2.5,4-3.6,4.1-4.8c0-0.7-1.3-8.8-2.8-9.6l-0.4-0.3c-0.9-0.6-2.3-1.5-3.8-1.2
		c-0.4,0.1-0.7,0.2-1.1,0.4c-1,0.6-3.6,2.4-4.7,4.7c-0.7,1.4-1,14.4,8.7,25.4c9.6,10.9,21.5,11.3,23.3,11l0,0l0.2,0
		c2.4-0.9,4.4-3.2,5.2-4.1C56.9,51.8,55.9,49.7,55.3,48.6z"/>
</g>
</svg>
