<?xml version="1.0" encoding="utf-8"?>
<!-- Generator: Adobe Illustrator 23.0.1, SVG Export Plug-In . SVG Version: 6.00 Build 0)  -->
<svg version="1.1" id="Layer_2" xmlns="http://www.w3.org/2000/svg" xmlns:xlink="http://www.w3.org/1999/xlink" x="0px" y="0px"
	 viewBox="0 0 304 84" style="enable-background:new 0 0 304 84;" xml:space="preserve">
<style type="text/css">
	.st0{fill-rule:evenodd;clip-rule:evenodd;fill:#1C3664;}
	.st1{fill:#BC2025;}
	.st2{fill-rule:evenodd;clip-rule:evenodd;fill:#FFFFFF;}
	.st3{fill-rule:evenodd;clip-rule:evenodd;fill:#CCD8E6;}
	.st4{fill-rule:evenodd;clip-rule:evenodd;fill:#FEFEFE;}
	.st5{fill-rule:evenodd;clip-rule:evenodd;fill:#ABBDD5;}
	.st6{fill:#FFFFFF;}
	.st7{fill-rule:evenodd;clip-rule:evenodd;fill:#003465;}
	.st8{fill:#003465;}
	.st9{fill:#1C3664;}
</style>
<g>
	<path class="st0" d="M48.2,59.2h23.1v20.9H0V60.6l27.8-30.4c2.9-3.2,4.9-5.2,10-9.9c-9.2,0.2-6.4,0.3-14.7,0.3L2,20.7V0h67.7v18.1
		l-26,28.5C40,50.7,37.3,53.4,31,59.8C40,59.5,43.7,59.2,48.2,59.2z M266.2,9.5v28.6h-34.5V9.5H266.2z M259.6,18.1l-1.3,0l1,0.8
		l-0.4,1.2l1-0.7l1,0.7l-0.4-1.2l1-0.8l-1.3,0l-0.4-1.2L259.6,18.1z M258,23.5l1-0.8l-1.3,0l-0.4-1.2l-0.4,1.2l-1.3,0l1,0.8
		l-0.4,1.2l1-0.7l1,0.7L258,23.5z M255.7,13.4l1,0.8l-0.4,1.2l1-0.7l1,0.7l-0.4-1.2l1-0.8l-1.3,0l-0.4-1.2l-0.4,1.2L255.7,13.4z
		 M254.2,18.1l-1.3,0l1,0.8l-0.4,1.2l1-0.7l1,0.7l-0.4-1.2l1-0.8l-1.3,0l-0.4-1.2L254.2,18.1z M252.6,23.5l1-0.8l-1.3,0l-0.4-1.2
		l-0.4,1.2l-1.3,0l1,0.8l-0.4,1.2l1-0.7l1,0.7L252.6,23.5z M250.2,13.4l1,0.8l-0.4,1.2l1-0.7l1,0.7l-0.4-1.2l1-0.8l-1.3,0l-0.4-1.2
		l-0.4,1.2L250.2,13.4z M248.7,18.1l-1.3,0l1,0.8l-0.4,1.2l1-0.7l1,0.7l-0.4-1.2l1-0.8l-1.3,0l-0.4-1.2L248.7,18.1z M247.2,23.5
		l1-0.8l-1.3,0l-0.4-1.2l-0.4,1.2l-1.3,0l1,0.8l-0.4,1.2l1-0.7l1,0.7L247.2,23.5z M244.8,13.4l1,0.8l-0.4,1.2l1-0.7l1,0.7l-0.4-1.2
		l1-0.8l-1.3,0l-0.4-1.2l-0.4,1.2L244.8,13.4z M243.3,18.1l-1.3,0l1,0.8l-0.4,1.2l1-0.7l1,0.7l-0.4-1.2l1-0.8l-1.3,0l-0.4-1.2
		L243.3,18.1z M241.7,23.5l1-0.8l-1.3,0l-0.4-1.2l-0.4,1.2l-1.3,0l1,0.8l-0.4,1.2l1-0.7l1,0.7L241.7,23.5z M239.4,13.4l1,0.8
		l-0.4,1.2l1-0.7l1,0.7l-0.4-1.2l1-0.8l-1.3,0l-0.4-1.2l-0.4,1.2L239.4,13.4z M237.8,18.1l-1.3,0l1,0.8l-0.4,1.2l1-0.7l1,0.7
		l-0.4-1.2l1-0.8l-1.3,0l-0.4-1.2L237.8,18.1z M233.9,13.4l1,0.8l-0.4,1.2l1-0.7l1,0.7l-0.4-1.2l1-0.8l-1.3,0l-0.4-1.2l-0.4,1.2
		L233.9,13.4z M233.9,22.8l1,0.8l-0.4,1.2l1-0.7l1,0.7l-0.4-1.2l1-0.8l-1.3,0l-0.4-1.2l-0.4,1.2L233.9,22.8z M236.3,32.9l1-0.8
		l-1.3,0l-0.4-1.2l-0.4,1.2l-1.3,0l1,0.8l-0.4,1.2l1-0.7l1,0.7L236.3,32.9z M239.3,29.4l-0.4-1.2l1-0.8l-1.3,0l-0.4-1.2l-0.4,1.2
		l-1.3,0l1,0.8l-0.4,1.2l1-0.7L239.3,29.4z M241.7,32.9l1-0.8l-1.3,0l-0.4-1.2l-0.4,1.2l-1.3,0l1,0.8l-0.4,1.2l1-0.7l1,0.7
		L241.7,32.9z M244.7,29.4l-0.4-1.2l1-0.8l-1.3,0l-0.4-1.2l-0.4,1.2l-1.3,0l1,0.8l-0.4,1.2l1-0.7L244.7,29.4z M247.2,32.9l1-0.8
		l-1.3,0l-0.4-1.2l-0.4,1.2l-1.3,0l1,0.8l-0.4,1.2l1-0.7l1,0.7L247.2,32.9z M250.2,29.4l-0.4-1.2l1-0.8l-1.3,0l-0.4-1.2l-0.4,1.2
		l-1.3,0l1,0.8l-0.4,1.2l1-0.7L250.2,29.4z M252.6,32.9l1-0.8l-1.3,0l-0.4-1.2l-0.4,1.2l-1.3,0l1,0.8l-0.4,1.2l1-0.7l1,0.7
		L252.6,32.9z M255.6,29.4l-0.4-1.2l1-0.8l-1.3,0l-0.4-1.2l-0.4,1.2l-1.3,0l1,0.8l-0.4,1.2l1-0.7L255.6,29.4z M258,32.9l1-0.8
		l-1.3,0l-0.4-1.2l-0.4,1.2l-1.3,0l1,0.8l-0.4,1.2l1-0.7l1,0.7L258,32.9z M261.1,29.4l-0.4-1.2l1-0.8l-1.3,0l-0.4-1.2l-0.4,1.2
		l-1.3,0l1,0.8l-0.4,1.2l1-0.7L261.1,29.4z M263.5,32.9l1-0.8l-1.3,0l-0.4-1.2l-0.4,1.2l-1.3,0l1,0.8l-0.4,1.2l1-0.7l1,0.7
		L263.5,32.9z M264.5,22.8l-1.3,0l-0.4-1.2l-0.4,1.2l-1.3,0l1,0.8l-0.4,1.2l1-0.7l1,0.7l-0.4-1.2L264.5,22.8z M264.5,13.5l-1.3,0
		l-0.4-1.2l-0.4,1.2l-1.3,0l1,0.8l-0.4,1.2l1-0.7l1,0.7l-0.4-1.2L264.5,13.5z M96.9,80l-1.5-3.8h-4.7L89.3,80h-1.4l4.7-11.9h1.2
		L98.4,80H96.9z M95,75l-1.4-3.7c-0.2-0.5-0.4-1-0.6-1.7c-0.1,0.5-0.3,1.1-0.5,1.7L91.2,75H95z M107.8,73.3c0,0.6-0.2,1-0.5,1.3
		c-0.3,0.3-0.8,0.5-1.4,0.6v0.1c0.8,0.1,1.3,0.3,1.7,0.7s0.5,0.8,0.5,1.4c0,0.8-0.3,1.5-0.9,1.9c-0.6,0.5-1.5,0.7-2.7,0.7h-3.9v-8.9
		h3.9C106.7,71.1,107.8,71.8,107.8,73.3z M106.5,73.5c0-0.4-0.2-0.7-0.5-0.9c-0.3-0.2-0.8-0.3-1.5-0.3H102v2.5h2.3
		c0.8,0,1.4-0.1,1.8-0.3C106.3,74.3,106.5,73.9,106.5,73.5z M106.7,77.3c0-0.5-0.2-0.8-0.5-1.1c-0.4-0.2-1-0.3-1.8-0.3H102v2.9h2.5
		C106,78.9,106.7,78.4,106.7,77.3z M116.8,72.2H114V80h-1.3v-7.8h-2.8v-1.2h7.1V72.2z M127.1,75.5c0,1.5-0.4,2.6-1.1,3.4
		c-0.7,0.8-1.7,1.2-3,1.2c-0.8,0-1.5-0.2-2.1-0.6c-0.6-0.4-1.1-0.9-1.4-1.6c-0.3-0.7-0.5-1.5-0.5-2.5c0-1.5,0.4-2.6,1.1-3.4
		c0.7-0.8,1.7-1.2,3-1.2c1.2,0,2.2,0.4,3,1.2C126.7,73,127.1,74.1,127.1,75.5z M120.3,75.5c0,1.1,0.2,2,0.7,2.6
		c0.5,0.6,1.1,0.9,2,0.9c0.9,0,1.5-0.3,2-0.9c0.5-0.6,0.7-1.5,0.7-2.6c0-1.1-0.2-2-0.7-2.6c-0.5-0.6-1.1-0.9-2-0.9
		c-0.9,0-1.5,0.3-2,0.9C120.6,73.5,120.3,74.4,120.3,75.5z M134.9,78.7l0.3-0.8l0.3-1l2.4-5.9h1.7V80h-1.2v-7.4l-0.2,0.5l-0.5,1.2
		l-2.3,5.6h-1.1l-2.3-5.7c-0.3-0.7-0.5-1.3-0.6-1.7V80h-1.2v-8.9h1.6l2.3,5.7C134.5,77.4,134.7,78,134.9,78.7z M150.9,75.5
		c0,1.5-0.4,2.6-1.1,3.4c-0.7,0.8-1.7,1.2-3,1.2c-0.8,0-1.5-0.2-2.1-0.6c-0.6-0.4-1.1-0.9-1.4-1.6c-0.3-0.7-0.5-1.5-0.5-2.5
		c0-1.5,0.4-2.6,1.1-3.4c0.7-0.8,1.7-1.2,3-1.2c1.2,0,2.2,0.4,3,1.2S150.9,74.1,150.9,75.5z M144.2,75.5c0,1.1,0.2,2,0.7,2.6
		c0.5,0.6,1.1,0.9,2,0.9c0.9,0,1.5-0.3,2-0.9c0.5-0.6,0.7-1.5,0.7-2.6c0-1.1-0.2-2-0.7-2.6c-0.5-0.6-1.1-0.9-2-0.9
		c-0.9,0-1.5,0.3-2,0.9C144.4,73.5,144.2,74.4,144.2,75.5z M153.7,74.7c0-2,0.3-3.5,0.9-4.6c0.6-1.1,1.5-1.8,2.7-2
		c1.5-0.3,2.9-0.6,4.1-0.8l0.3,1.2c-1.9,0.3-3.2,0.6-4,0.7c-0.8,0.2-1.4,0.6-1.8,1.3c-0.4,0.7-0.6,1.6-0.6,2.7h0.1
		c0.3-0.5,0.8-0.8,1.3-1.1c0.5-0.3,1.1-0.4,1.7-0.4c1.1,0,1.9,0.4,2.6,1.1c0.6,0.7,0.9,1.7,0.9,3c0,1.4-0.4,2.5-1.1,3.3
		c-0.7,0.8-1.7,1.2-3,1.2c-1.2,0-2.2-0.5-2.9-1.4C154,77.8,153.7,76.4,153.7,74.7z M157.8,79c1.6,0,2.5-1.1,2.5-3.2c0-2-0.7-3-2.2-3
		c-0.4,0-0.8,0.1-1.2,0.3s-0.7,0.4-1,0.7c-0.3,0.3-0.6,0.6-0.7,0.9c0,1.4,0.2,2.5,0.7,3.3C156.2,78.7,156.9,79,157.8,79z
		 M166.1,71.1v5.7l-0.1,1.5l0,0.5l4.8-7.6h1.7V80h-1.3v-5.4l0-1.1l0-1.1l-4.8,7.6h-1.7v-8.9H166.1z M182.8,80h-1.4v-7.8h-2.7
		c-0.1,1.9-0.3,3.5-0.6,4.6c-0.3,1.1-0.6,2-1,2.5c-0.4,0.5-0.9,0.8-1.6,0.8c-0.3,0-0.5,0-0.7-0.1v-1c0.1,0,0.3,0,0.4,0
		c0.6,0,1.1-0.7,1.5-2c0.4-1.3,0.6-3.3,0.8-6h5.2V80z M187.7,71.1v5.7l-0.1,1.5l0,0.5l4.8-7.6h1.7V80h-1.3v-5.4l0-1.1l0-1.1
		l-4.8,7.6h-1.7v-8.9H187.7z M204.2,71.1v5.7l-0.1,1.5l0,0.5l4.8-7.6h1.7V80h-1.3v-5.4l0-1.1l0-1.1l-4.8,7.6H203v-8.9H204.2z
		 M216,74.8c1.7,0,2.5-0.5,2.5-1.4c0-0.9-0.7-1.3-2-1.3c-0.4,0-0.8,0-1.1,0.1c-0.3,0.1-0.8,0.2-1.3,0.5l-0.5-1.1
		c0.9-0.4,1.9-0.6,3-0.6c1,0,1.8,0.2,2.4,0.6c0.6,0.4,0.9,1,0.9,1.7c0,1-0.6,1.7-1.7,2v0.1c0.7,0.2,1.2,0.5,1.5,0.9
		c0.3,0.4,0.5,0.8,0.5,1.4c0,0.8-0.3,1.5-1,1.9c-0.7,0.5-1.6,0.7-2.7,0.7c-1.3,0-2.3-0.2-3-0.6v-1.2c1,0.5,2,0.7,3,0.7
		c0.8,0,1.4-0.1,1.8-0.4c0.4-0.3,0.6-0.7,0.6-1.2c0-1-0.8-1.6-2.5-1.6H215v-1.1H216z M235.9,80l-1.5-3.8h-4.7l-1.5,3.8h-1.4
		l4.7-11.9h1.2l4.7,11.9H235.9z M234,75l-1.4-3.7c-0.2-0.5-0.4-1-0.6-1.7c-0.1,0.5-0.3,1.1-0.5,1.7l-1.4,3.7H234z M244.2,78.7
		l0.3-0.8l0.3-1l2.4-5.9h1.7V80h-1.2v-7.4l-0.2,0.5l-0.5,1.2l-2.3,5.6h-1.1l-2.3-5.7c-0.3-0.7-0.5-1.3-0.6-1.7V80h-1.2v-8.9h1.6
		l2.3,5.7C243.8,77.4,244,78,244.2,78.7z M256.3,80.2c-1.3,0-2.3-0.4-3.1-1.2c-0.8-0.8-1.1-1.9-1.1-3.3c0-1.4,0.4-2.6,1.1-3.4
		c0.7-0.8,1.7-1.3,2.8-1.3c1.1,0,2,0.4,2.6,1.1c0.6,0.7,1,1.7,1,2.9v0.9h-6.1c0,1,0.3,1.8,0.8,2.4c0.5,0.5,1.2,0.8,2.1,0.8
		c1,0,1.9-0.2,2.8-0.6v1.2c-0.5,0.2-0.9,0.4-1.3,0.4C257.5,80.1,256.9,80.2,256.3,80.2z M256,72.1c-0.7,0-1.3,0.2-1.7,0.7
		s-0.7,1.1-0.7,1.9h4.6c0-0.9-0.2-1.5-0.6-2C257.2,72.3,256.7,72.1,256,72.1z M266.9,80.2c-0.6,0-1.1-0.1-1.6-0.3
		c-0.5-0.2-0.9-0.5-1.2-1H264c0.1,0.5,0.1,1,0.1,1.5V84h-1.3V71.1h1.1l0.2,1.2h0.1c0.3-0.5,0.7-0.8,1.2-1.1c0.5-0.2,1-0.3,1.6-0.3
		c1.2,0,2.1,0.4,2.7,1.2c0.6,0.8,1,1.9,1,3.4c0,1.5-0.3,2.6-1,3.4C268.9,79.8,268,80.2,266.9,80.2z M266.7,72.1
		c-0.9,0-1.6,0.3-2,0.8c-0.4,0.5-0.6,1.3-0.6,2.4v0.3c0,1.3,0.2,2.1,0.6,2.7c0.4,0.5,1.1,0.8,2,0.8c0.8,0,1.4-0.3,1.8-0.9
		c0.4-0.6,0.7-1.5,0.7-2.6c0-1.1-0.2-2-0.7-2.6C268.1,72.4,267.4,72.1,266.7,72.1z M275,71.1v5.7l-0.1,1.5l0,0.5l4.8-7.6h1.7V80
		h-1.3v-5.4l0-1.1l0-1.1l-4.8,7.6h-1.7v-8.9H275z M290.2,71.1h1.5l-3.8,4.3L292,80h-1.6l-4-4.5V80h-1.3v-8.9h1.3v4.3L290.2,71.1z
		 M295.7,71.1v5.7l-0.1,1.5l0,0.5l4.8-7.6h1.7V80h-1.3v-5.4l0-1.1l0-1.1l-4.8,7.6h-1.7v-8.9H295.7z"/>
	<path class="st1" d="M80.3,42.5h12.1c-1.6,11.9-9.7,18.8-21.8,18.8c-14,0-23.2-9.4-23.2-23.7c0-14.8,9.3-24.6,23.4-24.6
		c12.2,0,20.3,6.7,21.4,17.3H79.9c-0.9-5.1-4.2-7.9-9-7.9C64.1,22.5,60,28,60,37.4c0,9.1,3.9,14.4,10.6,14.4
		C76,51.8,79.4,48.6,80.3,42.5z M142.1,60.2h-12.7c-0.6-1.7-0.7-2.4-0.9-4.4c-3.9,3.9-9.3,5.8-14.8,5.8c-10.1,0-16.3-5.2-16.3-13.8
		c0-12,10.9-13.4,19.9-14.6c8.1-1.1,11.1-1.8,11.1-5.5c0-4.2-2.6-6.1-8.2-6.1c-5.7,0-8.1,1.8-9,7H99.5c0.7-10.2,7.9-15.4,21.1-15.4
		c9.2,0,19.9,2.1,19.9,14.9v19.8C140.5,51.9,140.4,56.3,142.1,60.2z M128.4,37.9c-2.9,1.7-5.7,1.9-8.8,2.4c-4.3,0.7-9.2,1.2-9.2,6.8
		c0,3.8,2.6,6.1,6.9,6.1c6.5,0,11.1-3.6,11.1-10.2V37.9z M162.5,22.8v-8.4h-11.9v45.8h12.5V39.3c0-8.3,3.4-14.6,12-14.6
		c1.4,0,2.7,0.1,4.9,0.5V13.6c-1.2-0.2-1.8-0.3-2.7-0.3C170.4,13.4,165.3,16.9,162.5,22.8z M207,31.8c-7.2-1.5-11.1-2-11.1-5.9
		c0-2.8,2.6-4.5,7.1-4.5c5,0,7.9,1.5,8.7,6.3h11.7c-0.4-10.6-9.4-14.6-19.8-14.6c-12.7,0-20,5.1-20,14c0,10.9,10.6,12.2,18.7,14
		c6.5,1.5,10.2,2.2,10.2,6.1c0,3.5-3.2,5.7-8.3,5.7c-5.7,0-9.3-2.1-9.7-7.6h-11.9c0.2,11.7,10,16.2,21.4,16.2
		c13,0,20.8-5.9,20.8-15.5C224.8,35.6,215.2,33.5,207,31.8z M231.7,46.1H304v-4.7h-72.3V46.1z M231.7,54.1H304v-4.7h-72.3V54.1z
		 M231.7,62.1H304v-4.7h-72.3V62.1z M266.2,30.1H304v-4.7h-37.8V30.1z M266.2,9.5v4.6H304V9.5H266.2z M266.2,22.1H304v-4.7h-37.8
		V22.1z M266.2,38.1H304v-4.6h-37.8V38.1z"/>
</g>
</svg>
