<?xml version="1.0" encoding="utf-8"?>
<!-- Generator: Adobe Illustrator 23.0.1, SVG Export Plug-In . SVG Version: 6.00 Build 0)  -->
<svg version="1.1" id="Layer_2" xmlns="http://www.w3.org/2000/svg" xmlns:xlink="http://www.w3.org/1999/xlink" x="0px" y="0px"
	 viewBox="0 0 40 40" style="enable-background:new 0 0 40 40;" xml:space="preserve">
<style type="text/css">
	.st0{fill-rule:evenodd;clip-rule:evenodd;fill:#1C3664;}
	.st1{fill:#BC2025;}
	.st2{fill-rule:evenodd;clip-rule:evenodd;fill:#FFFFFF;}
	.st3{fill-rule:evenodd;clip-rule:evenodd;fill:#CCD8E6;}
	.st4{fill-rule:evenodd;clip-rule:evenodd;fill:#FEFEFE;}
	.st5{fill-rule:evenodd;clip-rule:evenodd;fill:#ABBDD5;}
	.st6{fill:#FFFFFF;}
	.st7{fill-rule:evenodd;clip-rule:evenodd;fill:#003465;}
	.st8{fill:#003465;}
	.st9{fill:#1C3664;}
</style>
<g>
	<path class="st3" d="M26.3,16c0.2-0.4,0.5-0.4,0.5-0.9c-0.7,0-1.2,0.5-1.6,0.7l-11.8,7.4l2.3,7.2c0.4-0.4,0.4-0.7,0.4-1.4
		c0-0.4,0.2-1.1,0.2-1.4v-1.2c0.2-0.2,0.2-0.4,0.2-0.7c0-0.2,0-0.4,0-0.5c0.2-0.4,0.4-0.2,0.5-0.5C19.6,21.8,23.3,18.7,26.3,16z"/>
	<path class="st4" d="M7.6,21.1l5.8,2.1l12.4-7.8c0.4-0.2,0.7-0.4,1.1-0.4c0,0.5-0.7,1.1-1.1,1.4c-2.6,2.3-7.1,5.6-9.4,8.3l2.1,1.6
		c0.4,0,1.2,0.9,1.4,1.1c0.4,0.2,1.8,1.2,1.9,1.6c0.4,0,0.4,0.2,0.5,0.4l1.8,1.2c0.7,0.5,1.4,1.4,2.6,0.5l3.9-17.6
		c0.5-3-0.9-2.5-2.8-1.8L8.2,19.7C7.4,20.1,6.7,21,7.6,21.1z"/>
	<path class="st5" d="M15.7,30.5l0.2,0.2c0.4,0,0.7-0.2,1.1-0.5l3-2.6c-0.2-0.2-1.1-1.1-1.4-1.1l-2.1-1.6L15.7,30.5z"/>
</g>
</svg>
