<?xml version="1.0" encoding="utf-8"?>
<!-- Generator: Adobe Illustrator 23.0.1, SVG Export Plug-In . SVG Version: 6.00 Build 0)  -->
<svg version="1.1" id="Layer_2" xmlns="http://www.w3.org/2000/svg" xmlns:xlink="http://www.w3.org/1999/xlink" x="0px" y="0px"
	 viewBox="0 0 100 75" style="enable-background:new 0 0 100 75;" xml:space="preserve">
<style type="text/css">
	.st0{fill-rule:evenodd;clip-rule:evenodd;fill:#1C3664;}
	.st1{fill:#BC2025;}
	.st2{fill-rule:evenodd;clip-rule:evenodd;fill:#FFFFFF;}
	.st3{fill-rule:evenodd;clip-rule:evenodd;fill:#CCD8E6;}
	.st4{fill-rule:evenodd;clip-rule:evenodd;fill:#FEFEFE;}
	.st5{fill-rule:evenodd;clip-rule:evenodd;fill:#ABBDD5;}
	.st6{fill:#FFFFFF;}
	.st7{fill-rule:evenodd;clip-rule:evenodd;fill:#003465;}
	.st8{fill:#003465;}
	.st9{fill:#1C3664;}
</style>
<path class="st9" d="M96.9,73.1c0.7,0.4,1.3,0.9,2.1,0.9l0,1c-1,0-1.8-0.5-2.6-1c-0.8-0.5-1.5-1-2.5-0.9c-0.9,0-1.6,0.5-2.3,0.9
	c-0.9,0.5-1.8,1.1-3,1.1c-1,0-1.8-0.5-2.6-1c-0.8-0.5-1.4-0.9-2.4-0.9c-0.9,0-1.6,0.5-2.4,0.9c-1,0.6-2,1.2-3.3,1
	c-1-0.1-1.7-0.6-2.4-1c-0.8-0.5-1.5-1-2.6-0.9c-0.9,0-1.6,0.5-2.3,0.9c-0.9,0.5-1.8,1.1-3,1.1c-1,0-1.8-0.5-2.6-1
	c-0.7-0.5-1.5-0.9-2.4-0.9c0,0,0,0,0,0c-0.9,0-1.6,0.5-2.4,0.9c-0.8,0.5-1.7,1.1-2.8,1.1c-0.2,0-0.3,0-0.5,0c-1-0.1-1.7-0.6-2.4-1
	c-0.8-0.5-1.5-1-2.6-0.9c-0.9,0-1.6,0.5-2.3,0.9c-0.9,0.5-1.8,1.1-3,1.1c-1,0-1.8-0.5-2.6-1c-0.8-0.5-1.4-0.9-2.4-0.9
	c-0.9,0-1.6,0.5-2.4,0.9c-1,0.6-2,1.2-3.3,1c-1-0.1-1.7-0.6-2.4-1c-0.8-0.5-1.5-1-2.6-0.9c-0.9,0-1.6,0.5-2.3,0.9
	c-0.9,0.5-1.8,1.1-3,1.1c-1,0-1.8-0.5-2.6-1c-0.8-0.5-1.5-1-2.4-0.9c-0.9,0-1.6,0.5-2.4,0.9c-1,0.6-2,1.2-3.3,1
	c-1-0.1-1.7-0.6-2.4-1c-0.8-0.5-1.5-1-2.6-0.9c-0.9,0-1.6,0.5-2.3,0.9c-0.9,0.5-1.8,1.1-3,1.1c-0.9,0-1.7-0.5-2.3-1
	c-0.5-0.4-1-0.7-1.5-0.8l0.2-1c0.7,0.2,1.3,0.6,1.8,1C3.2,73.6,3.7,74,4.4,74c1,0,1.7-0.4,2.5-0.9c0.8-0.5,1.7-1,2.8-1.1
	c1.4-0.1,2.3,0.5,3.2,1.1c0.6,0.4,1.2,0.8,2,0.9c1,0.1,1.8-0.3,2.7-0.9c0.9-0.5,1.7-1.1,2.9-1.1c0,0,0,0,0,0c1.2,0,2.1,0.6,2.9,1.1
	c0.7,0.4,1.3,0.9,2.1,0.9c1,0,1.7-0.4,2.5-0.9c0.8-0.5,1.7-1,2.8-1.1c1.4-0.1,2.3,0.5,3.2,1.1c0.6,0.4,1.2,0.8,2,0.9
	c1,0.1,1.8-0.3,2.6-0.9c0.9-0.5,1.7-1.1,2.9-1.1c0,0,0,0,0,0c1.2,0,2.1,0.6,2.9,1.1c0.7,0.4,1.3,0.9,2.1,0.9c1,0,1.7-0.4,2.5-0.9
	c0.8-0.5,1.7-1,2.8-1.1c1.4-0.1,2.3,0.5,3.2,1.1c0.6,0.4,1.2,0.8,2,0.9c1,0.1,1.8-0.3,2.6-0.9c0.9-0.5,1.7-1.1,2.9-1.1c0,0,0,0,0,0
	c1.2,0,2.1,0.6,2.9,1.1c0.7,0.4,1.3,0.9,2.1,0.9c0,0,0,0,0.1,0c0.9,0,1.7-0.4,2.4-0.9c0.8-0.5,1.7-1,2.8-1.1
	c1.4-0.1,2.3,0.5,3.2,1.1c0.6,0.4,1.2,0.8,2,0.9c1,0.1,1.8-0.3,2.6-0.9c0.9-0.5,1.7-1.1,2.9-1.1c0,0,0,0,0,0c1.2,0,2.1,0.6,2.9,1.1
	c0.7,0.4,1.3,0.9,2.1,0.9c1,0,1.7-0.4,2.5-0.9c0.8-0.5,1.7-1,2.8-1.1C95.1,71.9,96,72.6,96.9,73.1z M4.7,57.8L4.2,57h22.3l3.6,4.2
	V54h-0.7v-9.3h8.3h1h15.6h1h16.6V53v1v7.3h2.2v-4.4v-1v-10h0.3V20h1v25.8h6.6V40l6.4-1.8v12.5h4.3v5.3h4v5.4h3l-0.6,0.8
	c-0.2,0.2-4.6,6-8.5,8L90,70.2L89.8,70c-0.7-0.5-1.4-1-2.8-1c-1.3,0-1.8,0.4-2.4,0.9C84,70.4,83.2,71,81.4,71
	c-0.9,0-1.5-0.5-2.1-0.9C78.7,69.6,78,69,76.4,69c-1.3,0-1.8,0.4-2.4,0.9c-0.7,0.5-1.4,1.1-3.2,1.1c-0.9,0-1.5-0.5-2.1-0.9
	c-0.7-0.5-1.4-1.1-2.9-1.1c-1.3,0-1.8,0.4-2.4,0.9c-0.7,0.5-1.4,1.1-3.2,1.1c-0.9,0-1.5-0.5-2.1-0.9c-0.7-0.5-1.4-1.1-2.9-1.1
	c-1.3,0-1.8,0.4-2.4,0.9c-0.7,0.5-1.4,1.1-3.2,1.1c-0.9,0-1.5-0.5-2.1-0.9c-0.7-0.5-1.4-1.1-2.9-1.1c-1.3,0-1.8,0.4-2.4,0.9
	c-0.7,0.5-1.4,1.1-3.2,1.1c-0.9,0-1.5-0.5-2.1-0.9c-0.7-0.5-1.4-1.1-2.9-1.1c-1.3,0-1.8,0.4-2.4,0.9c-0.7,0.5-1.4,1.1-3.2,1.1
	c-0.9,0-1.5-0.5-2.1-0.9C26,69.6,25.3,69,23.7,69c-1.3,0-1.8,0.4-2.4,0.9C20.7,70.4,20,71,18.2,71c-0.9,0-1.5-0.5-2.1-0.9
	c-0.7-0.5-1.4-1.1-2.9-1.1c-1.3,0-1.8,0.4-2.4,0.9C10.2,70.4,9.4,71,7.6,71c-0.2,0-0.4,0-0.7-0.1l-0.9-0.2L6.8,70
	c2.6-2.2,2.9-3,2.9-3.2C9.8,66,7.2,61.5,4.7,57.8z M74.9,55.9h16.5v-4.3h-4.3V39.4l-4.4,1.3v6.2h-7.9V55.9z M74.9,61.3h20.6v-4.4h-3
	H74.9V61.3z M54.2,61.3V54h-7.3v7.2H54.2z M31,54v7.2h14.9V54H31z M70.7,61.3V54H55.2v7.2H70.7z M55.2,53h15.6v-7.3H55.2V53z
	 M38.6,53h15.6v-7.3H38.6V53z M30.3,53h7.3v-7.3h-7.3V53z M6,58c1.6,2.5,4.9,7.6,4.6,9c-0.1,0.4-0.4,1.2-2.3,2.9
	c0.9-0.1,1.3-0.5,1.8-0.9c0.6-0.5,1.3-1.1,3-1.1c1.9,0,2.8,0.7,3.5,1.3c0.5,0.4,0.9,0.7,1.5,0.7c1.4,0,1.9-0.4,2.5-0.9
	c0.6-0.5,1.3-1.1,3-1.1c1.9,0,2.8,0.7,3.5,1.3c0.5,0.4,0.9,0.7,1.5,0.7c1.4,0,1.9-0.4,2.5-0.9c0.6-0.5,1.3-1.1,3-1.1
	c1.9,0,2.8,0.7,3.5,1.3c0.5,0.4,0.9,0.7,1.5,0.7c1.4,0,1.9-0.4,2.5-0.9c0.6-0.5,1.3-1.1,3-1.1c1.9,0,2.8,0.7,3.5,1.3
	c0.5,0.4,0.9,0.7,1.5,0.7c1.4,0,1.9-0.4,2.5-0.9c0.6-0.5,1.3-1.1,3-1.1c1.9,0,2.8,0.7,3.5,1.3c0.5,0.4,0.9,0.7,1.5,0.7
	c1.4,0,1.9-0.4,2.5-0.9c0.6-0.5,1.3-1.1,3-1.1c1.9,0,2.8,0.7,3.5,1.3c0.5,0.4,0.9,0.7,1.5,0.7c1.4,0,1.9-0.4,2.5-0.9
	c0.6-0.5,1.3-1.1,3-1.1c1.9,0,2.8,0.7,3.5,1.3c0.5,0.4,0.9,0.7,1.5,0.7c1.4,0,1.9-0.4,2.5-0.9c0.6-0.5,1.3-1.1,3-1.1
	c1.5,0,2.4,0.5,3.2,1c2.8-1.6,5.9-5.1,7.3-6.7h-0.9H73.9h-2.2v0H55.2h-1h-7.3h-1H30v0h-0.4L26,58H6z"/>
</svg>
